<mxfile host="app.diagrams.net" modified="2023-08-28T15:21:59.360Z" agent="Mozilla/5.0 (Windows NT 10.0; Win64; x64) AppleWebKit/537.36 (KHTML, like Gecko) Chrome/112.0.0.0 Safari/537.36" etag="9rnfH6qc_BKW0YBpnRff" version="21.6.9" type="onedrive" pages="2">
  <diagram id="C5RBs43oDa-KdzZeNtuy" name="Page-1">
    <mxGraphModel grid="1" page="1" gridSize="10" guides="1" tooltips="1" connect="1" arrows="1" fold="1" pageScale="1" pageWidth="827" pageHeight="1169" math="0" shadow="0">
      <root>
        <mxCell id="WIyWlLk6GJQsqaUBKTNV-0" />
        <mxCell id="WIyWlLk6GJQsqaUBKTNV-1" parent="WIyWlLk6GJQsqaUBKTNV-0" />
        <mxCell id="nNdOjqee2YxKoc1IFC1l-45" value="" style="edgeStyle=orthogonalEdgeStyle;rounded=0;orthogonalLoop=1;jettySize=auto;html=1;" edge="1" parent="WIyWlLk6GJQsqaUBKTNV-1" source="WIyWlLk6GJQsqaUBKTNV-3" target="nNdOjqee2YxKoc1IFC1l-44">
          <mxGeometry relative="1" as="geometry" />
        </mxCell>
        <mxCell id="WIyWlLk6GJQsqaUBKTNV-3" value="Main Interface" style="rounded=1;whiteSpace=wrap;html=1;fontSize=12;glass=0;strokeWidth=1;shadow=0;labelBackgroundColor=none;" vertex="1" parent="WIyWlLk6GJQsqaUBKTNV-1">
          <mxGeometry x="350" y="-270" width="120" height="40" as="geometry" />
        </mxCell>
        <mxCell id="nNdOjqee2YxKoc1IFC1l-9" style="edgeStyle=orthogonalEdgeStyle;rounded=1;hachureGap=4;orthogonalLoop=1;jettySize=auto;html=1;fontFamily=Architects Daughter;fontSource=https%3A%2F%2Ffonts.googleapis.com%2Fcss%3Ffamily%3DArchitects%2BDaughter;fontSize=16;exitX=0;exitY=0.5;exitDx=0;exitDy=0;labelBackgroundColor=none;fontColor=default;" edge="1" parent="WIyWlLk6GJQsqaUBKTNV-1" source="nNdOjqee2YxKoc1IFC1l-1" target="nNdOjqee2YxKoc1IFC1l-27">
          <mxGeometry relative="1" as="geometry">
            <mxPoint x="50" y="110" as="targetPoint" />
            <mxPoint x="259.9985714285716" y="-0.0014285714285324491" as="sourcePoint" />
            <Array as="points">
              <mxPoint x="50" />
              <mxPoint x="50" y="110" />
            </Array>
          </mxGeometry>
        </mxCell>
        <mxCell id="nNdOjqee2YxKoc1IFC1l-17" value="Show Data by Location" style="edgeLabel;html=1;align=center;verticalAlign=middle;resizable=0;points=[];" connectable="0" vertex="1" parent="nNdOjqee2YxKoc1IFC1l-9">
          <mxGeometry x="0.6282" relative="1" as="geometry">
            <mxPoint y="40" as="offset" />
          </mxGeometry>
        </mxCell>
        <mxCell id="nNdOjqee2YxKoc1IFC1l-13" style="edgeStyle=orthogonalEdgeStyle;rounded=0;orthogonalLoop=1;jettySize=auto;html=1;" edge="1" parent="WIyWlLk6GJQsqaUBKTNV-1" source="nNdOjqee2YxKoc1IFC1l-1" target="nNdOjqee2YxKoc1IFC1l-52">
          <mxGeometry relative="1" as="geometry">
            <mxPoint x="260" y="110" as="targetPoint" />
            <Array as="points">
              <mxPoint x="260" />
              <mxPoint x="260" y="110" />
            </Array>
          </mxGeometry>
        </mxCell>
        <mxCell id="nNdOjqee2YxKoc1IFC1l-14" value="Show Price Distribution" style="edgeLabel;html=1;align=center;verticalAlign=middle;resizable=0;points=[];" connectable="0" vertex="1" parent="nNdOjqee2YxKoc1IFC1l-13">
          <mxGeometry x="0.3824" y="1" relative="1" as="geometry">
            <mxPoint x="-1" y="28" as="offset" />
          </mxGeometry>
        </mxCell>
        <mxCell id="nNdOjqee2YxKoc1IFC1l-15" style="edgeStyle=orthogonalEdgeStyle;rounded=0;orthogonalLoop=1;jettySize=auto;html=1;" edge="1" parent="WIyWlLk6GJQsqaUBKTNV-1" source="nNdOjqee2YxKoc1IFC1l-1" target="nNdOjqee2YxKoc1IFC1l-75">
          <mxGeometry relative="1" as="geometry">
            <mxPoint x="500" y="100.00000000000023" as="targetPoint" />
            <Array as="points">
              <mxPoint x="510" />
            </Array>
          </mxGeometry>
        </mxCell>
        <mxCell id="nNdOjqee2YxKoc1IFC1l-16" value="Search Keyword" style="edgeLabel;html=1;align=center;verticalAlign=middle;resizable=0;points=[];" connectable="0" vertex="1" parent="nNdOjqee2YxKoc1IFC1l-15">
          <mxGeometry x="0.2905" y="1" relative="1" as="geometry">
            <mxPoint y="23" as="offset" />
          </mxGeometry>
        </mxCell>
        <mxCell id="nNdOjqee2YxKoc1IFC1l-18" style="edgeStyle=orthogonalEdgeStyle;rounded=0;orthogonalLoop=1;jettySize=auto;html=1;" edge="1" parent="WIyWlLk6GJQsqaUBKTNV-1" source="nNdOjqee2YxKoc1IFC1l-1">
          <mxGeometry relative="1" as="geometry">
            <mxPoint x="730" y="110" as="targetPoint" />
            <Array as="points">
              <mxPoint x="730" />
              <mxPoint x="730" y="100" />
            </Array>
          </mxGeometry>
        </mxCell>
        <mxCell id="nNdOjqee2YxKoc1IFC1l-19" value="Cleaniess Report" style="edgeLabel;html=1;align=center;verticalAlign=middle;resizable=0;points=[];" connectable="0" vertex="1" parent="nNdOjqee2YxKoc1IFC1l-18">
          <mxGeometry x="0.6232" y="4" relative="1" as="geometry">
            <mxPoint x="-4" y="27" as="offset" />
          </mxGeometry>
        </mxCell>
        <mxCell id="nNdOjqee2YxKoc1IFC1l-20" style="edgeStyle=orthogonalEdgeStyle;rounded=0;orthogonalLoop=1;jettySize=auto;html=1;" edge="1" parent="WIyWlLk6GJQsqaUBKTNV-1" source="nNdOjqee2YxKoc1IFC1l-1">
          <mxGeometry relative="1" as="geometry">
            <mxPoint x="980.9877748842592" y="110" as="targetPoint" />
            <Array as="points">
              <mxPoint x="980" />
              <mxPoint x="980" y="100" />
              <mxPoint x="981" y="100" />
            </Array>
          </mxGeometry>
        </mxCell>
        <mxCell id="nNdOjqee2YxKoc1IFC1l-21" value="Occupancy and price trends" style="edgeLabel;html=1;align=center;verticalAlign=middle;resizable=0;points=[];" connectable="0" vertex="1" parent="nNdOjqee2YxKoc1IFC1l-20">
          <mxGeometry x="0.718" y="1" relative="1" as="geometry">
            <mxPoint y="32" as="offset" />
          </mxGeometry>
        </mxCell>
        <mxCell id="nNdOjqee2YxKoc1IFC1l-22" style="edgeStyle=orthogonalEdgeStyle;rounded=0;orthogonalLoop=1;jettySize=auto;html=1;entryX=0.5;entryY=0;entryDx=0;entryDy=0;" edge="1" parent="WIyWlLk6GJQsqaUBKTNV-1" source="nNdOjqee2YxKoc1IFC1l-1" target="nNdOjqee2YxKoc1IFC1l-24">
          <mxGeometry relative="1" as="geometry">
            <mxPoint x="930" y="100" as="targetPoint" />
            <Array as="points">
              <mxPoint x="1290" />
            </Array>
          </mxGeometry>
        </mxCell>
        <mxCell id="nNdOjqee2YxKoc1IFC1l-1" value="Which Button?" style="rhombus;whiteSpace=wrap;html=1;hachureGap=4;fontFamily=Architects Daughter;fontSource=https%3A%2F%2Ffonts.googleapis.com%2Fcss%3Ffamily%3DArchitects%2BDaughter;fontSize=20;rounded=1;labelBackgroundColor=none;" vertex="1" parent="WIyWlLk6GJQsqaUBKTNV-1">
          <mxGeometry x="370" y="-40" width="80" height="80" as="geometry" />
        </mxCell>
        <mxCell id="nNdOjqee2YxKoc1IFC1l-6" style="edgeStyle=orthogonalEdgeStyle;rounded=1;hachureGap=4;orthogonalLoop=1;jettySize=auto;html=1;entryX=0.5;entryY=0;entryDx=0;entryDy=0;fontFamily=Architects Daughter;fontSource=https%3A%2F%2Ffonts.googleapis.com%2Fcss%3Ffamily%3DArchitects%2BDaughter;fontSize=16;labelBackgroundColor=none;fontColor=default;" edge="1" parent="WIyWlLk6GJQsqaUBKTNV-1" target="WIyWlLk6GJQsqaUBKTNV-3">
          <mxGeometry relative="1" as="geometry">
            <mxPoint x="410" y="-360" as="sourcePoint" />
          </mxGeometry>
        </mxCell>
        <mxCell id="nNdOjqee2YxKoc1IFC1l-12" value="Start&amp;nbsp;" style="ellipse;whiteSpace=wrap;html=1;" vertex="1" parent="WIyWlLk6GJQsqaUBKTNV-1">
          <mxGeometry x="350" y="-440" width="120" height="80" as="geometry" />
        </mxCell>
        <mxCell id="nNdOjqee2YxKoc1IFC1l-24" value="Close Software" style="rounded=1;whiteSpace=wrap;html=1;" vertex="1" parent="WIyWlLk6GJQsqaUBKTNV-1">
          <mxGeometry x="1230" y="150" width="120" height="60" as="geometry" />
        </mxCell>
        <mxCell id="nNdOjqee2YxKoc1IFC1l-29" value="" style="edgeStyle=orthogonalEdgeStyle;rounded=0;orthogonalLoop=1;jettySize=auto;html=1;" edge="1" parent="WIyWlLk6GJQsqaUBKTNV-1" source="nNdOjqee2YxKoc1IFC1l-27" target="nNdOjqee2YxKoc1IFC1l-28">
          <mxGeometry relative="1" as="geometry" />
        </mxCell>
        <mxCell id="nNdOjqee2YxKoc1IFC1l-27" value="Input Start Time" style="shape=parallelogram;perimeter=parallelogramPerimeter;whiteSpace=wrap;html=1;fixedSize=1;" vertex="1" parent="WIyWlLk6GJQsqaUBKTNV-1">
          <mxGeometry x="-10" y="80" width="120" height="60" as="geometry" />
        </mxCell>
        <mxCell id="nNdOjqee2YxKoc1IFC1l-30" style="edgeStyle=orthogonalEdgeStyle;rounded=0;orthogonalLoop=1;jettySize=auto;html=1;entryX=1;entryY=0.5;entryDx=0;entryDy=0;dashed=1;" edge="1" parent="WIyWlLk6GJQsqaUBKTNV-1" source="nNdOjqee2YxKoc1IFC1l-28" target="nNdOjqee2YxKoc1IFC1l-27">
          <mxGeometry relative="1" as="geometry">
            <Array as="points">
              <mxPoint x="150" y="250" />
              <mxPoint x="150" y="110" />
            </Array>
          </mxGeometry>
        </mxCell>
        <mxCell id="nNdOjqee2YxKoc1IFC1l-31" value="No" style="edgeLabel;html=1;align=center;verticalAlign=middle;resizable=0;points=[];" connectable="0" vertex="1" parent="nNdOjqee2YxKoc1IFC1l-30">
          <mxGeometry x="-0.1355" y="1" relative="1" as="geometry">
            <mxPoint as="offset" />
          </mxGeometry>
        </mxCell>
        <mxCell id="nNdOjqee2YxKoc1IFC1l-33" value="" style="edgeStyle=orthogonalEdgeStyle;rounded=0;orthogonalLoop=1;jettySize=auto;html=1;" edge="1" parent="WIyWlLk6GJQsqaUBKTNV-1" source="nNdOjqee2YxKoc1IFC1l-28" target="nNdOjqee2YxKoc1IFC1l-32">
          <mxGeometry relative="1" as="geometry" />
        </mxCell>
        <mxCell id="nNdOjqee2YxKoc1IFC1l-70" value="Yes" style="edgeLabel;html=1;align=center;verticalAlign=middle;resizable=0;points=[];" connectable="0" vertex="1" parent="nNdOjqee2YxKoc1IFC1l-33">
          <mxGeometry x="-0.263" relative="1" as="geometry">
            <mxPoint as="offset" />
          </mxGeometry>
        </mxCell>
        <mxCell id="nNdOjqee2YxKoc1IFC1l-28" value="Is Time Valid?" style="rhombus;whiteSpace=wrap;html=1;" vertex="1" parent="WIyWlLk6GJQsqaUBKTNV-1">
          <mxGeometry x="10" y="210" width="80" height="80" as="geometry" />
        </mxCell>
        <mxCell id="nNdOjqee2YxKoc1IFC1l-35" value="" style="edgeStyle=orthogonalEdgeStyle;rounded=0;orthogonalLoop=1;jettySize=auto;html=1;" edge="1" parent="WIyWlLk6GJQsqaUBKTNV-1" source="nNdOjqee2YxKoc1IFC1l-32" target="nNdOjqee2YxKoc1IFC1l-34">
          <mxGeometry relative="1" as="geometry" />
        </mxCell>
        <mxCell id="nNdOjqee2YxKoc1IFC1l-32" value="Search Data (backend)" style="whiteSpace=wrap;html=1;" vertex="1" parent="WIyWlLk6GJQsqaUBKTNV-1">
          <mxGeometry x="-10" y="380" width="120" height="60" as="geometry" />
        </mxCell>
        <mxCell id="nNdOjqee2YxKoc1IFC1l-37" value="" style="edgeStyle=orthogonalEdgeStyle;rounded=0;orthogonalLoop=1;jettySize=auto;html=1;" edge="1" parent="WIyWlLk6GJQsqaUBKTNV-1" source="nNdOjqee2YxKoc1IFC1l-34" target="nNdOjqee2YxKoc1IFC1l-36">
          <mxGeometry relative="1" as="geometry" />
        </mxCell>
        <mxCell id="nNdOjqee2YxKoc1IFC1l-34" value="Show Result" style="whiteSpace=wrap;html=1;" vertex="1" parent="WIyWlLk6GJQsqaUBKTNV-1">
          <mxGeometry x="-10" y="520" width="120" height="60" as="geometry" />
        </mxCell>
        <mxCell id="nNdOjqee2YxKoc1IFC1l-39" value="" style="edgeStyle=orthogonalEdgeStyle;rounded=0;orthogonalLoop=1;jettySize=auto;html=1;" edge="1" parent="WIyWlLk6GJQsqaUBKTNV-1" source="nNdOjqee2YxKoc1IFC1l-36" target="nNdOjqee2YxKoc1IFC1l-38">
          <mxGeometry relative="1" as="geometry" />
        </mxCell>
        <mxCell id="nNdOjqee2YxKoc1IFC1l-36" value="User Press Button" style="whiteSpace=wrap;html=1;" vertex="1" parent="WIyWlLk6GJQsqaUBKTNV-1">
          <mxGeometry x="-10" y="660" width="120" height="60" as="geometry" />
        </mxCell>
        <mxCell id="nNdOjqee2YxKoc1IFC1l-40" style="edgeStyle=orthogonalEdgeStyle;rounded=0;orthogonalLoop=1;jettySize=auto;html=1;entryX=0;entryY=0.5;entryDx=0;entryDy=0;" edge="1" parent="WIyWlLk6GJQsqaUBKTNV-1" source="nNdOjqee2YxKoc1IFC1l-38" target="nNdOjqee2YxKoc1IFC1l-27">
          <mxGeometry relative="1" as="geometry">
            <Array as="points">
              <mxPoint x="-80" y="830" />
              <mxPoint x="-80" y="110" />
            </Array>
          </mxGeometry>
        </mxCell>
        <mxCell id="nNdOjqee2YxKoc1IFC1l-43" value="Search Again" style="edgeLabel;html=1;align=center;verticalAlign=middle;resizable=0;points=[];" connectable="0" vertex="1" parent="nNdOjqee2YxKoc1IFC1l-40">
          <mxGeometry x="0.4331" relative="1" as="geometry">
            <mxPoint y="528" as="offset" />
          </mxGeometry>
        </mxCell>
        <mxCell id="nNdOjqee2YxKoc1IFC1l-47" style="edgeStyle=orthogonalEdgeStyle;rounded=0;orthogonalLoop=1;jettySize=auto;html=1;entryX=0;entryY=0.5;entryDx=0;entryDy=0;" edge="1" parent="WIyWlLk6GJQsqaUBKTNV-1" source="nNdOjqee2YxKoc1IFC1l-38" target="WIyWlLk6GJQsqaUBKTNV-3">
          <mxGeometry relative="1" as="geometry">
            <Array as="points">
              <mxPoint x="50" y="910" />
              <mxPoint x="-120" y="910" />
              <mxPoint x="-120" y="-250" />
            </Array>
          </mxGeometry>
        </mxCell>
        <mxCell id="nNdOjqee2YxKoc1IFC1l-48" value="Return To Main Interface" style="edgeLabel;html=1;align=center;verticalAlign=middle;resizable=0;points=[];" connectable="0" vertex="1" parent="nNdOjqee2YxKoc1IFC1l-47">
          <mxGeometry x="-0.1294" y="1" relative="1" as="geometry">
            <mxPoint x="211" y="563" as="offset" />
          </mxGeometry>
        </mxCell>
        <mxCell id="nNdOjqee2YxKoc1IFC1l-95" style="edgeStyle=orthogonalEdgeStyle;rounded=0;orthogonalLoop=1;jettySize=auto;html=1;entryX=0;entryY=0.5;entryDx=0;entryDy=0;" edge="1" parent="WIyWlLk6GJQsqaUBKTNV-1" source="nNdOjqee2YxKoc1IFC1l-38" target="nNdOjqee2YxKoc1IFC1l-94">
          <mxGeometry relative="1" as="geometry" />
        </mxCell>
        <mxCell id="nNdOjqee2YxKoc1IFC1l-99" value="Quit Button" style="edgeLabel;html=1;align=center;verticalAlign=middle;resizable=0;points=[];" connectable="0" vertex="1" parent="nNdOjqee2YxKoc1IFC1l-95">
          <mxGeometry x="-0.6763" y="1" relative="1" as="geometry">
            <mxPoint as="offset" />
          </mxGeometry>
        </mxCell>
        <mxCell id="nNdOjqee2YxKoc1IFC1l-38" value="Which Button?" style="rhombus;whiteSpace=wrap;html=1;" vertex="1" parent="WIyWlLk6GJQsqaUBKTNV-1">
          <mxGeometry x="10" y="790" width="80" height="80" as="geometry" />
        </mxCell>
        <mxCell id="nNdOjqee2YxKoc1IFC1l-46" style="edgeStyle=orthogonalEdgeStyle;rounded=0;orthogonalLoop=1;jettySize=auto;html=1;" edge="1" parent="WIyWlLk6GJQsqaUBKTNV-1" source="nNdOjqee2YxKoc1IFC1l-44" target="nNdOjqee2YxKoc1IFC1l-1">
          <mxGeometry relative="1" as="geometry" />
        </mxCell>
        <mxCell id="nNdOjqee2YxKoc1IFC1l-44" value="User Press Button" style="whiteSpace=wrap;html=1;rounded=1;glass=0;strokeWidth=1;shadow=0;labelBackgroundColor=none;" vertex="1" parent="WIyWlLk6GJQsqaUBKTNV-1">
          <mxGeometry x="350" y="-160" width="120" height="60" as="geometry" />
        </mxCell>
        <mxCell id="nNdOjqee2YxKoc1IFC1l-55" style="edgeStyle=orthogonalEdgeStyle;rounded=0;orthogonalLoop=1;jettySize=auto;html=1;entryX=0.5;entryY=0;entryDx=0;entryDy=0;" edge="1" parent="WIyWlLk6GJQsqaUBKTNV-1" source="nNdOjqee2YxKoc1IFC1l-52" target="nNdOjqee2YxKoc1IFC1l-54">
          <mxGeometry relative="1" as="geometry" />
        </mxCell>
        <mxCell id="nNdOjqee2YxKoc1IFC1l-52" value="Input Start Time" style="shape=parallelogram;perimeter=parallelogramPerimeter;whiteSpace=wrap;html=1;fixedSize=1;" vertex="1" parent="WIyWlLk6GJQsqaUBKTNV-1">
          <mxGeometry x="200" y="80" width="120" height="60" as="geometry" />
        </mxCell>
        <mxCell id="nNdOjqee2YxKoc1IFC1l-56" style="edgeStyle=orthogonalEdgeStyle;rounded=0;orthogonalLoop=1;jettySize=auto;html=1;entryX=1;entryY=0.5;entryDx=0;entryDy=0;dashed=1;" edge="1" parent="WIyWlLk6GJQsqaUBKTNV-1" source="nNdOjqee2YxKoc1IFC1l-54" target="nNdOjqee2YxKoc1IFC1l-52">
          <mxGeometry relative="1" as="geometry">
            <Array as="points">
              <mxPoint x="380" y="250" />
              <mxPoint x="380" y="110" />
            </Array>
          </mxGeometry>
        </mxCell>
        <mxCell id="nNdOjqee2YxKoc1IFC1l-57" value="No" style="edgeLabel;html=1;align=center;verticalAlign=middle;resizable=0;points=[];" connectable="0" vertex="1" parent="nNdOjqee2YxKoc1IFC1l-56">
          <mxGeometry x="0.028" y="-2" relative="1" as="geometry">
            <mxPoint as="offset" />
          </mxGeometry>
        </mxCell>
        <mxCell id="nNdOjqee2YxKoc1IFC1l-69" style="edgeStyle=orthogonalEdgeStyle;rounded=0;orthogonalLoop=1;jettySize=auto;html=1;entryX=0.5;entryY=0;entryDx=0;entryDy=0;" edge="1" parent="WIyWlLk6GJQsqaUBKTNV-1" source="nNdOjqee2YxKoc1IFC1l-54" target="nNdOjqee2YxKoc1IFC1l-59">
          <mxGeometry relative="1" as="geometry" />
        </mxCell>
        <mxCell id="nNdOjqee2YxKoc1IFC1l-71" value="Yes" style="edgeLabel;html=1;align=center;verticalAlign=middle;resizable=0;points=[];" connectable="0" vertex="1" parent="nNdOjqee2YxKoc1IFC1l-69">
          <mxGeometry x="-0.3185" y="3" relative="1" as="geometry">
            <mxPoint as="offset" />
          </mxGeometry>
        </mxCell>
        <mxCell id="nNdOjqee2YxKoc1IFC1l-54" value="Is Time Valid?" style="rhombus;whiteSpace=wrap;html=1;" vertex="1" parent="WIyWlLk6GJQsqaUBKTNV-1">
          <mxGeometry x="220" y="210" width="80" height="80" as="geometry" />
        </mxCell>
        <mxCell id="nNdOjqee2YxKoc1IFC1l-58" value="" style="edgeStyle=orthogonalEdgeStyle;rounded=0;orthogonalLoop=1;jettySize=auto;html=1;" edge="1" parent="WIyWlLk6GJQsqaUBKTNV-1" source="nNdOjqee2YxKoc1IFC1l-59" target="nNdOjqee2YxKoc1IFC1l-61">
          <mxGeometry relative="1" as="geometry" />
        </mxCell>
        <mxCell id="nNdOjqee2YxKoc1IFC1l-59" value="Search Data (backend)" style="whiteSpace=wrap;html=1;" vertex="1" parent="WIyWlLk6GJQsqaUBKTNV-1">
          <mxGeometry x="200" y="380" width="120" height="60" as="geometry" />
        </mxCell>
        <mxCell id="nNdOjqee2YxKoc1IFC1l-60" value="" style="edgeStyle=orthogonalEdgeStyle;rounded=0;orthogonalLoop=1;jettySize=auto;html=1;" edge="1" parent="WIyWlLk6GJQsqaUBKTNV-1" source="nNdOjqee2YxKoc1IFC1l-61" target="nNdOjqee2YxKoc1IFC1l-62">
          <mxGeometry relative="1" as="geometry" />
        </mxCell>
        <mxCell id="nNdOjqee2YxKoc1IFC1l-61" value="Show Result" style="whiteSpace=wrap;html=1;" vertex="1" parent="WIyWlLk6GJQsqaUBKTNV-1">
          <mxGeometry x="200" y="520" width="120" height="60" as="geometry" />
        </mxCell>
        <mxCell id="nNdOjqee2YxKoc1IFC1l-64" style="edgeStyle=orthogonalEdgeStyle;rounded=0;orthogonalLoop=1;jettySize=auto;html=1;entryX=0.5;entryY=0;entryDx=0;entryDy=0;" edge="1" parent="WIyWlLk6GJQsqaUBKTNV-1" source="nNdOjqee2YxKoc1IFC1l-62" target="nNdOjqee2YxKoc1IFC1l-63">
          <mxGeometry relative="1" as="geometry" />
        </mxCell>
        <mxCell id="nNdOjqee2YxKoc1IFC1l-62" value="User Press Button" style="whiteSpace=wrap;html=1;" vertex="1" parent="WIyWlLk6GJQsqaUBKTNV-1">
          <mxGeometry x="200" y="660" width="120" height="60" as="geometry" />
        </mxCell>
        <mxCell id="nNdOjqee2YxKoc1IFC1l-65" style="edgeStyle=orthogonalEdgeStyle;rounded=0;orthogonalLoop=1;jettySize=auto;html=1;entryX=0;entryY=0.5;entryDx=0;entryDy=0;" edge="1" parent="WIyWlLk6GJQsqaUBKTNV-1" source="nNdOjqee2YxKoc1IFC1l-63" target="nNdOjqee2YxKoc1IFC1l-52">
          <mxGeometry relative="1" as="geometry">
            <Array as="points">
              <mxPoint x="170" y="830" />
              <mxPoint x="170" y="110" />
            </Array>
          </mxGeometry>
        </mxCell>
        <mxCell id="nNdOjqee2YxKoc1IFC1l-66" style="edgeStyle=orthogonalEdgeStyle;rounded=0;orthogonalLoop=1;jettySize=auto;html=1;entryX=0;entryY=0.5;entryDx=0;entryDy=0;" edge="1" parent="WIyWlLk6GJQsqaUBKTNV-1" source="nNdOjqee2YxKoc1IFC1l-63" target="WIyWlLk6GJQsqaUBKTNV-3">
          <mxGeometry relative="1" as="geometry">
            <Array as="points">
              <mxPoint x="260" y="950" />
              <mxPoint x="-120" y="950" />
              <mxPoint x="-120" y="-250" />
            </Array>
          </mxGeometry>
        </mxCell>
        <mxCell id="nNdOjqee2YxKoc1IFC1l-96" style="edgeStyle=orthogonalEdgeStyle;rounded=0;orthogonalLoop=1;jettySize=auto;html=1;entryX=1;entryY=0.5;entryDx=0;entryDy=0;" edge="1" parent="WIyWlLk6GJQsqaUBKTNV-1" source="nNdOjqee2YxKoc1IFC1l-63" target="nNdOjqee2YxKoc1IFC1l-94">
          <mxGeometry relative="1" as="geometry">
            <Array as="points">
              <mxPoint x="340" y="830" />
              <mxPoint x="340" y="1199" />
            </Array>
          </mxGeometry>
        </mxCell>
        <mxCell id="nNdOjqee2YxKoc1IFC1l-63" value="Which Button?" style="rhombus;whiteSpace=wrap;html=1;" vertex="1" parent="WIyWlLk6GJQsqaUBKTNV-1">
          <mxGeometry x="220" y="790" width="80" height="80" as="geometry" />
        </mxCell>
        <mxCell id="nNdOjqee2YxKoc1IFC1l-67" value="Return To Main Interface" style="edgeLabel;html=1;align=center;verticalAlign=middle;resizable=0;points=[];" connectable="0" vertex="1" parent="WIyWlLk6GJQsqaUBKTNV-1">
          <mxGeometry x="250.00000000000023" y="889.9966666666666" as="geometry" />
        </mxCell>
        <mxCell id="nNdOjqee2YxKoc1IFC1l-68" value="Search Again" style="edgeLabel;html=1;align=center;verticalAlign=middle;resizable=0;points=[];" connectable="0" vertex="1" parent="WIyWlLk6GJQsqaUBKTNV-1">
          <mxGeometry x="170.00000000000023" y="810" as="geometry" />
        </mxCell>
        <mxCell id="nNdOjqee2YxKoc1IFC1l-76" style="edgeStyle=orthogonalEdgeStyle;rounded=0;orthogonalLoop=1;jettySize=auto;html=1;" edge="1" parent="WIyWlLk6GJQsqaUBKTNV-1" source="nNdOjqee2YxKoc1IFC1l-75" target="nNdOjqee2YxKoc1IFC1l-77">
          <mxGeometry relative="1" as="geometry">
            <mxPoint x="510" y="240" as="targetPoint" />
          </mxGeometry>
        </mxCell>
        <mxCell id="nNdOjqee2YxKoc1IFC1l-75" value="Input Keyword" style="shape=parallelogram;perimeter=parallelogramPerimeter;whiteSpace=wrap;html=1;fixedSize=1;" vertex="1" parent="WIyWlLk6GJQsqaUBKTNV-1">
          <mxGeometry x="450" y="80" width="120" height="60" as="geometry" />
        </mxCell>
        <mxCell id="nNdOjqee2YxKoc1IFC1l-78" style="edgeStyle=orthogonalEdgeStyle;rounded=0;orthogonalLoop=1;jettySize=auto;html=1;" edge="1" parent="WIyWlLk6GJQsqaUBKTNV-1" source="nNdOjqee2YxKoc1IFC1l-77" target="nNdOjqee2YxKoc1IFC1l-79">
          <mxGeometry relative="1" as="geometry">
            <mxPoint x="510" y="370" as="targetPoint" />
          </mxGeometry>
        </mxCell>
        <mxCell id="nNdOjqee2YxKoc1IFC1l-80" value="No" style="edgeLabel;html=1;align=center;verticalAlign=middle;resizable=0;points=[];" connectable="0" vertex="1" parent="nNdOjqee2YxKoc1IFC1l-78">
          <mxGeometry x="-0.1378" y="-2" relative="1" as="geometry">
            <mxPoint as="offset" />
          </mxGeometry>
        </mxCell>
        <mxCell id="nNdOjqee2YxKoc1IFC1l-81" style="edgeStyle=orthogonalEdgeStyle;rounded=0;orthogonalLoop=1;jettySize=auto;html=1;entryX=1;entryY=0.5;entryDx=0;entryDy=0;dashed=1;" edge="1" parent="WIyWlLk6GJQsqaUBKTNV-1" source="nNdOjqee2YxKoc1IFC1l-77" target="nNdOjqee2YxKoc1IFC1l-75">
          <mxGeometry relative="1" as="geometry">
            <Array as="points">
              <mxPoint x="610" y="240" />
              <mxPoint x="610" y="110" />
            </Array>
          </mxGeometry>
        </mxCell>
        <mxCell id="nNdOjqee2YxKoc1IFC1l-82" value="No" style="edgeLabel;html=1;align=center;verticalAlign=middle;resizable=0;points=[];" connectable="0" vertex="1" parent="nNdOjqee2YxKoc1IFC1l-81">
          <mxGeometry x="0.0296" y="-1" relative="1" as="geometry">
            <mxPoint as="offset" />
          </mxGeometry>
        </mxCell>
        <mxCell id="nNdOjqee2YxKoc1IFC1l-77" value="Is Input Empty?" style="rhombus;whiteSpace=wrap;html=1;" vertex="1" parent="WIyWlLk6GJQsqaUBKTNV-1">
          <mxGeometry x="470" y="200" width="80" height="80" as="geometry" />
        </mxCell>
        <mxCell id="nNdOjqee2YxKoc1IFC1l-92" style="edgeStyle=orthogonalEdgeStyle;rounded=0;orthogonalLoop=1;jettySize=auto;html=1;entryX=0.5;entryY=0;entryDx=0;entryDy=0;" edge="1" parent="WIyWlLk6GJQsqaUBKTNV-1" source="nNdOjqee2YxKoc1IFC1l-79" target="nNdOjqee2YxKoc1IFC1l-85">
          <mxGeometry relative="1" as="geometry" />
        </mxCell>
        <mxCell id="nNdOjqee2YxKoc1IFC1l-79" value="Input Start Time" style="rounded=0;whiteSpace=wrap;html=1;" vertex="1" parent="WIyWlLk6GJQsqaUBKTNV-1">
          <mxGeometry x="450" y="380" width="120" height="60" as="geometry" />
        </mxCell>
        <mxCell id="nNdOjqee2YxKoc1IFC1l-83" style="edgeStyle=orthogonalEdgeStyle;rounded=0;orthogonalLoop=1;jettySize=auto;html=1;entryX=0.5;entryY=0;entryDx=0;entryDy=0;" edge="1" parent="WIyWlLk6GJQsqaUBKTNV-1" source="nNdOjqee2YxKoc1IFC1l-85" target="nNdOjqee2YxKoc1IFC1l-87">
          <mxGeometry relative="1" as="geometry" />
        </mxCell>
        <mxCell id="nNdOjqee2YxKoc1IFC1l-84" value="Yes" style="edgeLabel;html=1;align=center;verticalAlign=middle;resizable=0;points=[];" connectable="0" vertex="1" parent="nNdOjqee2YxKoc1IFC1l-83">
          <mxGeometry x="-0.3185" y="3" relative="1" as="geometry">
            <mxPoint as="offset" />
          </mxGeometry>
        </mxCell>
        <mxCell id="nNdOjqee2YxKoc1IFC1l-101" style="edgeStyle=orthogonalEdgeStyle;rounded=0;orthogonalLoop=1;jettySize=auto;html=1;entryX=1;entryY=0.5;entryDx=0;entryDy=0;dashed=1;" edge="1" parent="WIyWlLk6GJQsqaUBKTNV-1" source="nNdOjqee2YxKoc1IFC1l-85" target="nNdOjqee2YxKoc1IFC1l-79">
          <mxGeometry relative="1" as="geometry">
            <Array as="points">
              <mxPoint x="620" y="549" />
              <mxPoint x="620" y="410" />
            </Array>
          </mxGeometry>
        </mxCell>
        <mxCell id="nNdOjqee2YxKoc1IFC1l-102" value="No" style="edgeLabel;html=1;align=center;verticalAlign=middle;resizable=0;points=[];" connectable="0" vertex="1" parent="nNdOjqee2YxKoc1IFC1l-101">
          <mxGeometry x="0.0481" y="-2" relative="1" as="geometry">
            <mxPoint as="offset" />
          </mxGeometry>
        </mxCell>
        <mxCell id="nNdOjqee2YxKoc1IFC1l-85" value="Is Time Valid?" style="rhombus;whiteSpace=wrap;html=1;" vertex="1" parent="WIyWlLk6GJQsqaUBKTNV-1">
          <mxGeometry x="470" y="509" width="80" height="80" as="geometry" />
        </mxCell>
        <mxCell id="nNdOjqee2YxKoc1IFC1l-86" value="" style="edgeStyle=orthogonalEdgeStyle;rounded=0;orthogonalLoop=1;jettySize=auto;html=1;" edge="1" parent="WIyWlLk6GJQsqaUBKTNV-1" source="nNdOjqee2YxKoc1IFC1l-87" target="nNdOjqee2YxKoc1IFC1l-88">
          <mxGeometry relative="1" as="geometry" />
        </mxCell>
        <mxCell id="nNdOjqee2YxKoc1IFC1l-87" value="Search Data (backend)" style="whiteSpace=wrap;html=1;" vertex="1" parent="WIyWlLk6GJQsqaUBKTNV-1">
          <mxGeometry x="450" y="679" width="120" height="60" as="geometry" />
        </mxCell>
        <mxCell id="nNdOjqee2YxKoc1IFC1l-93" style="edgeStyle=orthogonalEdgeStyle;rounded=0;orthogonalLoop=1;jettySize=auto;html=1;entryX=0.5;entryY=0;entryDx=0;entryDy=0;" edge="1" parent="WIyWlLk6GJQsqaUBKTNV-1" source="nNdOjqee2YxKoc1IFC1l-88" target="nNdOjqee2YxKoc1IFC1l-90">
          <mxGeometry relative="1" as="geometry" />
        </mxCell>
        <mxCell id="nNdOjqee2YxKoc1IFC1l-88" value="Show Result" style="whiteSpace=wrap;html=1;" vertex="1" parent="WIyWlLk6GJQsqaUBKTNV-1">
          <mxGeometry x="450" y="819" width="120" height="60" as="geometry" />
        </mxCell>
        <mxCell id="nNdOjqee2YxKoc1IFC1l-89" style="edgeStyle=orthogonalEdgeStyle;rounded=0;orthogonalLoop=1;jettySize=auto;html=1;entryX=0.5;entryY=0;entryDx=0;entryDy=0;" edge="1" parent="WIyWlLk6GJQsqaUBKTNV-1" source="nNdOjqee2YxKoc1IFC1l-90" target="nNdOjqee2YxKoc1IFC1l-91">
          <mxGeometry relative="1" as="geometry" />
        </mxCell>
        <mxCell id="nNdOjqee2YxKoc1IFC1l-90" value="User Press Button" style="whiteSpace=wrap;html=1;" vertex="1" parent="WIyWlLk6GJQsqaUBKTNV-1">
          <mxGeometry x="450" y="959" width="120" height="60" as="geometry" />
        </mxCell>
        <mxCell id="nNdOjqee2YxKoc1IFC1l-103" style="edgeStyle=orthogonalEdgeStyle;rounded=0;orthogonalLoop=1;jettySize=auto;html=1;entryX=0;entryY=0.5;entryDx=0;entryDy=0;" edge="1" parent="WIyWlLk6GJQsqaUBKTNV-1" source="nNdOjqee2YxKoc1IFC1l-91" target="nNdOjqee2YxKoc1IFC1l-75">
          <mxGeometry relative="1" as="geometry">
            <Array as="points">
              <mxPoint x="410" y="1129" />
              <mxPoint x="410" y="110" />
            </Array>
          </mxGeometry>
        </mxCell>
        <mxCell id="nNdOjqee2YxKoc1IFC1l-105" style="edgeStyle=orthogonalEdgeStyle;rounded=0;orthogonalLoop=1;jettySize=auto;html=1;entryX=0;entryY=0.5;entryDx=0;entryDy=0;" edge="1" parent="WIyWlLk6GJQsqaUBKTNV-1" source="nNdOjqee2YxKoc1IFC1l-91" target="WIyWlLk6GJQsqaUBKTNV-3">
          <mxGeometry relative="1" as="geometry">
            <Array as="points">
              <mxPoint x="510" y="1260" />
              <mxPoint x="-120" y="1260" />
              <mxPoint x="-120" y="-250" />
            </Array>
          </mxGeometry>
        </mxCell>
        <mxCell id="nNdOjqee2YxKoc1IFC1l-107" style="edgeStyle=orthogonalEdgeStyle;rounded=0;orthogonalLoop=1;jettySize=auto;html=1;entryX=0.5;entryY=1;entryDx=0;entryDy=0;" edge="1" parent="WIyWlLk6GJQsqaUBKTNV-1" source="nNdOjqee2YxKoc1IFC1l-91" target="nNdOjqee2YxKoc1IFC1l-94">
          <mxGeometry relative="1" as="geometry">
            <Array as="points">
              <mxPoint x="600" y="1129" />
              <mxPoint x="600" y="1310" />
              <mxPoint x="230" y="1310" />
            </Array>
          </mxGeometry>
        </mxCell>
        <mxCell id="nNdOjqee2YxKoc1IFC1l-91" value="Which Button?" style="rhombus;whiteSpace=wrap;html=1;" vertex="1" parent="WIyWlLk6GJQsqaUBKTNV-1">
          <mxGeometry x="470" y="1089" width="80" height="80" as="geometry" />
        </mxCell>
        <mxCell id="nNdOjqee2YxKoc1IFC1l-94" value="Close Software" style="rounded=1;whiteSpace=wrap;html=1;" vertex="1" parent="WIyWlLk6GJQsqaUBKTNV-1">
          <mxGeometry x="170" y="1169" width="120" height="60" as="geometry" />
        </mxCell>
        <mxCell id="nNdOjqee2YxKoc1IFC1l-100" value="Quit Button" style="edgeLabel;html=1;align=center;verticalAlign=middle;resizable=0;points=[];" connectable="0" vertex="1" parent="WIyWlLk6GJQsqaUBKTNV-1">
          <mxGeometry x="339.9999999999998" y="859.9972727272725" as="geometry" />
        </mxCell>
        <mxCell id="nNdOjqee2YxKoc1IFC1l-104" value="Search Again" style="edgeLabel;html=1;align=center;verticalAlign=middle;resizable=0;points=[];" connectable="0" vertex="1" parent="WIyWlLk6GJQsqaUBKTNV-1">
          <mxGeometry x="410.0000000000002" y="1129" as="geometry" />
        </mxCell>
        <mxCell id="nNdOjqee2YxKoc1IFC1l-106" value="Return To Main Interface" style="edgeLabel;html=1;align=center;verticalAlign=middle;resizable=0;points=[];" connectable="0" vertex="1" parent="WIyWlLk6GJQsqaUBKTNV-1">
          <mxGeometry x="500.0000000000002" y="1209.9966666666664" as="geometry" />
        </mxCell>
        <mxCell id="nNdOjqee2YxKoc1IFC1l-108" value="Quit Button" style="edgeLabel;html=1;align=center;verticalAlign=middle;resizable=0;points=[];" connectable="0" vertex="1" parent="WIyWlLk6GJQsqaUBKTNV-1">
          <mxGeometry x="599.9999999999998" y="1128.9972727272725" as="geometry" />
        </mxCell>
        <mxCell id="nNdOjqee2YxKoc1IFC1l-109" value="" style="edgeStyle=orthogonalEdgeStyle;rounded=0;orthogonalLoop=1;jettySize=auto;html=1;" edge="1" parent="WIyWlLk6GJQsqaUBKTNV-1" source="nNdOjqee2YxKoc1IFC1l-110" target="nNdOjqee2YxKoc1IFC1l-112">
          <mxGeometry relative="1" as="geometry" />
        </mxCell>
        <mxCell id="nNdOjqee2YxKoc1IFC1l-110" value="Search Data (backend)" style="whiteSpace=wrap;html=1;" vertex="1" parent="WIyWlLk6GJQsqaUBKTNV-1">
          <mxGeometry x="669.92" y="107.91999999999996" width="120" height="60" as="geometry" />
        </mxCell>
        <mxCell id="nNdOjqee2YxKoc1IFC1l-111" style="edgeStyle=orthogonalEdgeStyle;rounded=0;orthogonalLoop=1;jettySize=auto;html=1;entryX=0.5;entryY=0;entryDx=0;entryDy=0;" edge="1" parent="WIyWlLk6GJQsqaUBKTNV-1" source="nNdOjqee2YxKoc1IFC1l-112" target="nNdOjqee2YxKoc1IFC1l-114">
          <mxGeometry relative="1" as="geometry" />
        </mxCell>
        <mxCell id="nNdOjqee2YxKoc1IFC1l-112" value="Show Result" style="whiteSpace=wrap;html=1;" vertex="1" parent="WIyWlLk6GJQsqaUBKTNV-1">
          <mxGeometry x="669.92" y="247.91999999999996" width="120" height="60" as="geometry" />
        </mxCell>
        <mxCell id="nNdOjqee2YxKoc1IFC1l-113" style="edgeStyle=orthogonalEdgeStyle;rounded=0;orthogonalLoop=1;jettySize=auto;html=1;entryX=0.5;entryY=0;entryDx=0;entryDy=0;" edge="1" parent="WIyWlLk6GJQsqaUBKTNV-1" source="nNdOjqee2YxKoc1IFC1l-114" target="nNdOjqee2YxKoc1IFC1l-118">
          <mxGeometry relative="1" as="geometry" />
        </mxCell>
        <mxCell id="nNdOjqee2YxKoc1IFC1l-114" value="User Press Button" style="whiteSpace=wrap;html=1;" vertex="1" parent="WIyWlLk6GJQsqaUBKTNV-1">
          <mxGeometry x="669.92" y="387.91999999999996" width="120" height="60" as="geometry" />
        </mxCell>
        <mxCell id="nNdOjqee2YxKoc1IFC1l-116" style="edgeStyle=orthogonalEdgeStyle;rounded=0;orthogonalLoop=1;jettySize=auto;html=1;entryX=1;entryY=0.5;entryDx=0;entryDy=0;" edge="1" parent="WIyWlLk6GJQsqaUBKTNV-1" source="nNdOjqee2YxKoc1IFC1l-118" target="WIyWlLk6GJQsqaUBKTNV-3">
          <mxGeometry relative="1" as="geometry">
            <mxPoint x="569.92" y="-821.08" as="targetPoint" />
            <Array as="points">
              <mxPoint x="730" y="689" />
              <mxPoint x="640" y="689" />
              <mxPoint x="640" y="-250" />
            </Array>
          </mxGeometry>
        </mxCell>
        <mxCell id="nNdOjqee2YxKoc1IFC1l-117" style="edgeStyle=orthogonalEdgeStyle;rounded=0;orthogonalLoop=1;jettySize=auto;html=1;entryX=0.5;entryY=1;entryDx=0;entryDy=0;" edge="1" parent="WIyWlLk6GJQsqaUBKTNV-1" source="nNdOjqee2YxKoc1IFC1l-118" target="nNdOjqee2YxKoc1IFC1l-94">
          <mxGeometry relative="1" as="geometry">
            <mxPoint x="449.91999999999996" y="657.92" as="targetPoint" />
            <Array as="points">
              <mxPoint x="820" y="558" />
              <mxPoint x="820" y="1310" />
              <mxPoint x="230" y="1310" />
            </Array>
          </mxGeometry>
        </mxCell>
        <mxCell id="nNdOjqee2YxKoc1IFC1l-118" value="Which Button?" style="rhombus;whiteSpace=wrap;html=1;" vertex="1" parent="WIyWlLk6GJQsqaUBKTNV-1">
          <mxGeometry x="689.92" y="517.92" width="80" height="80" as="geometry" />
        </mxCell>
        <mxCell id="nNdOjqee2YxKoc1IFC1l-120" value="Return To Main Interface" style="edgeLabel;html=1;align=center;verticalAlign=middle;resizable=0;points=[];" connectable="0" vertex="1" parent="WIyWlLk6GJQsqaUBKTNV-1">
          <mxGeometry x="719.9200000000002" y="638.9166666666664" as="geometry" />
        </mxCell>
        <mxCell id="nNdOjqee2YxKoc1IFC1l-121" value="Quit Button" style="edgeLabel;html=1;align=center;verticalAlign=middle;resizable=0;points=[];" connectable="0" vertex="1" parent="WIyWlLk6GJQsqaUBKTNV-1">
          <mxGeometry x="819.9199999999997" y="557.9172727272725" as="geometry" />
        </mxCell>
        <mxCell id="nNdOjqee2YxKoc1IFC1l-123" style="edgeStyle=orthogonalEdgeStyle;rounded=0;orthogonalLoop=1;jettySize=auto;html=1;" edge="1" parent="WIyWlLk6GJQsqaUBKTNV-1" source="nNdOjqee2YxKoc1IFC1l-122" target="nNdOjqee2YxKoc1IFC1l-124">
          <mxGeometry relative="1" as="geometry">
            <mxPoint x="980" y="220" as="targetPoint" />
          </mxGeometry>
        </mxCell>
        <mxCell id="nNdOjqee2YxKoc1IFC1l-122" value="Tick Selected &lt;br&gt;Surburb" style="shape=parallelogram;perimeter=parallelogramPerimeter;whiteSpace=wrap;html=1;fixedSize=1;" vertex="1" parent="WIyWlLk6GJQsqaUBKTNV-1">
          <mxGeometry x="920" y="110" width="120" height="60" as="geometry" />
        </mxCell>
        <mxCell id="nNdOjqee2YxKoc1IFC1l-125" style="edgeStyle=orthogonalEdgeStyle;rounded=0;orthogonalLoop=1;jettySize=auto;html=1;entryX=0;entryY=0.5;entryDx=0;entryDy=0;dashed=1;" edge="1" parent="WIyWlLk6GJQsqaUBKTNV-1" source="nNdOjqee2YxKoc1IFC1l-124" target="nNdOjqee2YxKoc1IFC1l-122">
          <mxGeometry relative="1" as="geometry">
            <Array as="points">
              <mxPoint x="880" y="278" />
              <mxPoint x="880" y="140" />
            </Array>
          </mxGeometry>
        </mxCell>
        <mxCell id="nNdOjqee2YxKoc1IFC1l-126" value="No" style="edgeLabel;html=1;align=center;verticalAlign=middle;resizable=0;points=[];" connectable="0" vertex="1" parent="nNdOjqee2YxKoc1IFC1l-125">
          <mxGeometry x="-0.7536" relative="1" as="geometry">
            <mxPoint as="offset" />
          </mxGeometry>
        </mxCell>
        <mxCell id="nNdOjqee2YxKoc1IFC1l-128" value="" style="edgeStyle=orthogonalEdgeStyle;rounded=0;orthogonalLoop=1;jettySize=auto;html=1;" edge="1" parent="WIyWlLk6GJQsqaUBKTNV-1" source="nNdOjqee2YxKoc1IFC1l-124" target="nNdOjqee2YxKoc1IFC1l-127">
          <mxGeometry relative="1" as="geometry" />
        </mxCell>
        <mxCell id="nNdOjqee2YxKoc1IFC1l-134" value="Yes" style="edgeLabel;html=1;align=center;verticalAlign=middle;resizable=0;points=[];" connectable="0" vertex="1" parent="nNdOjqee2YxKoc1IFC1l-128">
          <mxGeometry x="-0.4124" y="-3" relative="1" as="geometry">
            <mxPoint as="offset" />
          </mxGeometry>
        </mxCell>
        <mxCell id="nNdOjqee2YxKoc1IFC1l-124" value="Is Anything Ticked?" style="rhombus;whiteSpace=wrap;html=1;" vertex="1" parent="WIyWlLk6GJQsqaUBKTNV-1">
          <mxGeometry x="940" y="237.92000000000002" width="80" height="80" as="geometry" />
        </mxCell>
        <mxCell id="nNdOjqee2YxKoc1IFC1l-130" value="" style="edgeStyle=orthogonalEdgeStyle;rounded=0;orthogonalLoop=1;jettySize=auto;html=1;" edge="1" parent="WIyWlLk6GJQsqaUBKTNV-1" source="nNdOjqee2YxKoc1IFC1l-127" target="nNdOjqee2YxKoc1IFC1l-129">
          <mxGeometry relative="1" as="geometry" />
        </mxCell>
        <mxCell id="nNdOjqee2YxKoc1IFC1l-127" value="Select Start Time" style="shape=parallelogram;perimeter=parallelogramPerimeter;whiteSpace=wrap;html=1;fixedSize=1;" vertex="1" parent="WIyWlLk6GJQsqaUBKTNV-1">
          <mxGeometry x="920" y="407.92" width="120" height="60" as="geometry" />
        </mxCell>
        <mxCell id="nNdOjqee2YxKoc1IFC1l-131" style="edgeStyle=orthogonalEdgeStyle;rounded=0;orthogonalLoop=1;jettySize=auto;html=1;entryX=0;entryY=0.5;entryDx=0;entryDy=0;" edge="1" parent="WIyWlLk6GJQsqaUBKTNV-1" source="nNdOjqee2YxKoc1IFC1l-129" target="nNdOjqee2YxKoc1IFC1l-127">
          <mxGeometry relative="1" as="geometry">
            <Array as="points">
              <mxPoint x="880" y="578" />
              <mxPoint x="880" y="438" />
            </Array>
          </mxGeometry>
        </mxCell>
        <mxCell id="nNdOjqee2YxKoc1IFC1l-133" value="No" style="edgeLabel;html=1;align=center;verticalAlign=middle;resizable=0;points=[];" connectable="0" vertex="1" parent="nNdOjqee2YxKoc1IFC1l-131">
          <mxGeometry x="-0.8577" y="-2" relative="1" as="geometry">
            <mxPoint as="offset" />
          </mxGeometry>
        </mxCell>
        <mxCell id="nNdOjqee2YxKoc1IFC1l-136" style="edgeStyle=orthogonalEdgeStyle;rounded=0;orthogonalLoop=1;jettySize=auto;html=1;" edge="1" parent="WIyWlLk6GJQsqaUBKTNV-1" source="nNdOjqee2YxKoc1IFC1l-129">
          <mxGeometry relative="1" as="geometry">
            <mxPoint x="980" y="680" as="targetPoint" />
          </mxGeometry>
        </mxCell>
        <mxCell id="nNdOjqee2YxKoc1IFC1l-137" value="Yes" style="edgeLabel;html=1;align=center;verticalAlign=middle;resizable=0;points=[];" connectable="0" vertex="1" parent="nNdOjqee2YxKoc1IFC1l-136">
          <mxGeometry x="-0.4861" relative="1" as="geometry">
            <mxPoint as="offset" />
          </mxGeometry>
        </mxCell>
        <mxCell id="nNdOjqee2YxKoc1IFC1l-129" value="Is Start &lt;br&gt;Time Valid?" style="rhombus;whiteSpace=wrap;html=1;" vertex="1" parent="WIyWlLk6GJQsqaUBKTNV-1">
          <mxGeometry x="940" y="537.9200000000001" width="80" height="80" as="geometry" />
        </mxCell>
        <mxCell id="nNdOjqee2YxKoc1IFC1l-139" style="edgeStyle=orthogonalEdgeStyle;rounded=0;orthogonalLoop=1;jettySize=auto;html=1;" edge="1" parent="WIyWlLk6GJQsqaUBKTNV-1" source="nNdOjqee2YxKoc1IFC1l-138" target="nNdOjqee2YxKoc1IFC1l-140">
          <mxGeometry relative="1" as="geometry">
            <mxPoint x="980" y="810" as="targetPoint" />
          </mxGeometry>
        </mxCell>
        <mxCell id="nNdOjqee2YxKoc1IFC1l-138" value="Input Time&lt;br&gt;Duration" style="shape=parallelogram;perimeter=parallelogramPerimeter;whiteSpace=wrap;html=1;fixedSize=1;" vertex="1" parent="WIyWlLk6GJQsqaUBKTNV-1">
          <mxGeometry x="920" y="679" width="120" height="60" as="geometry" />
        </mxCell>
        <mxCell id="nNdOjqee2YxKoc1IFC1l-143" style="edgeStyle=orthogonalEdgeStyle;rounded=0;orthogonalLoop=1;jettySize=auto;html=1;entryX=0;entryY=0.5;entryDx=0;entryDy=0;" edge="1" parent="WIyWlLk6GJQsqaUBKTNV-1" source="nNdOjqee2YxKoc1IFC1l-140" target="nNdOjqee2YxKoc1IFC1l-138">
          <mxGeometry relative="1" as="geometry">
            <Array as="points">
              <mxPoint x="880" y="850" />
              <mxPoint x="880" y="709" />
            </Array>
          </mxGeometry>
        </mxCell>
        <mxCell id="nNdOjqee2YxKoc1IFC1l-144" value="No" style="edgeLabel;html=1;align=center;verticalAlign=middle;resizable=0;points=[];" connectable="0" vertex="1" parent="nNdOjqee2YxKoc1IFC1l-143">
          <mxGeometry x="-0.6429" relative="1" as="geometry">
            <mxPoint as="offset" />
          </mxGeometry>
        </mxCell>
        <mxCell id="nNdOjqee2YxKoc1IFC1l-145" style="edgeStyle=orthogonalEdgeStyle;rounded=0;orthogonalLoop=1;jettySize=auto;html=1;" edge="1" parent="WIyWlLk6GJQsqaUBKTNV-1" source="nNdOjqee2YxKoc1IFC1l-140">
          <mxGeometry relative="1" as="geometry">
            <mxPoint x="980" y="980" as="targetPoint" />
          </mxGeometry>
        </mxCell>
        <mxCell id="nNdOjqee2YxKoc1IFC1l-146" value="Yes" style="edgeLabel;html=1;align=center;verticalAlign=middle;resizable=0;points=[];" connectable="0" vertex="1" parent="nNdOjqee2YxKoc1IFC1l-145">
          <mxGeometry x="-0.2117" relative="1" as="geometry">
            <mxPoint as="offset" />
          </mxGeometry>
        </mxCell>
        <mxCell id="nNdOjqee2YxKoc1IFC1l-140" value="Is valid input?" style="rhombus;whiteSpace=wrap;html=1;" vertex="1" parent="WIyWlLk6GJQsqaUBKTNV-1">
          <mxGeometry x="940" y="810" width="80" height="80" as="geometry" />
        </mxCell>
        <mxCell id="nNdOjqee2YxKoc1IFC1l-147" value="" style="edgeStyle=orthogonalEdgeStyle;rounded=0;orthogonalLoop=1;jettySize=auto;html=1;" edge="1" parent="WIyWlLk6GJQsqaUBKTNV-1" source="nNdOjqee2YxKoc1IFC1l-148" target="nNdOjqee2YxKoc1IFC1l-150">
          <mxGeometry relative="1" as="geometry" />
        </mxCell>
        <mxCell id="nNdOjqee2YxKoc1IFC1l-148" value="Search Data (backend)" style="whiteSpace=wrap;html=1;" vertex="1" parent="WIyWlLk6GJQsqaUBKTNV-1">
          <mxGeometry x="920" y="980" width="120" height="60" as="geometry" />
        </mxCell>
        <mxCell id="nNdOjqee2YxKoc1IFC1l-149" style="edgeStyle=orthogonalEdgeStyle;rounded=0;orthogonalLoop=1;jettySize=auto;html=1;entryX=0.5;entryY=0;entryDx=0;entryDy=0;" edge="1" parent="WIyWlLk6GJQsqaUBKTNV-1" source="nNdOjqee2YxKoc1IFC1l-150" target="nNdOjqee2YxKoc1IFC1l-152">
          <mxGeometry relative="1" as="geometry" />
        </mxCell>
        <mxCell id="nNdOjqee2YxKoc1IFC1l-150" value="Show Result" style="whiteSpace=wrap;html=1;" vertex="1" parent="WIyWlLk6GJQsqaUBKTNV-1">
          <mxGeometry x="920" y="1120" width="120" height="60" as="geometry" />
        </mxCell>
        <mxCell id="nNdOjqee2YxKoc1IFC1l-151" style="edgeStyle=orthogonalEdgeStyle;rounded=0;orthogonalLoop=1;jettySize=auto;html=1;entryX=0.5;entryY=0;entryDx=0;entryDy=0;" edge="1" parent="WIyWlLk6GJQsqaUBKTNV-1" source="nNdOjqee2YxKoc1IFC1l-152" target="nNdOjqee2YxKoc1IFC1l-153">
          <mxGeometry relative="1" as="geometry" />
        </mxCell>
        <mxCell id="nNdOjqee2YxKoc1IFC1l-152" value="User Press Button" style="whiteSpace=wrap;html=1;" vertex="1" parent="WIyWlLk6GJQsqaUBKTNV-1">
          <mxGeometry x="920" y="1260" width="120" height="60" as="geometry" />
        </mxCell>
        <mxCell id="nNdOjqee2YxKoc1IFC1l-154" style="edgeStyle=orthogonalEdgeStyle;rounded=0;orthogonalLoop=1;jettySize=auto;html=1;" edge="1" parent="WIyWlLk6GJQsqaUBKTNV-1" source="nNdOjqee2YxKoc1IFC1l-153">
          <mxGeometry relative="1" as="geometry">
            <mxPoint x="930" y="138.59657689144737" as="targetPoint" />
            <Array as="points">
              <mxPoint x="860" y="1430" />
              <mxPoint x="860" y="139" />
            </Array>
          </mxGeometry>
        </mxCell>
        <mxCell id="nNdOjqee2YxKoc1IFC1l-155" value="Search Again" style="edgeLabel;html=1;align=center;verticalAlign=middle;resizable=0;points=[];" connectable="0" vertex="1" parent="nNdOjqee2YxKoc1IFC1l-154">
          <mxGeometry x="-0.9489" y="1" relative="1" as="geometry">
            <mxPoint as="offset" />
          </mxGeometry>
        </mxCell>
        <mxCell id="nNdOjqee2YxKoc1IFC1l-156" style="edgeStyle=orthogonalEdgeStyle;rounded=0;orthogonalLoop=1;jettySize=auto;html=1;entryX=1;entryY=0.5;entryDx=0;entryDy=0;" edge="1" parent="WIyWlLk6GJQsqaUBKTNV-1" source="nNdOjqee2YxKoc1IFC1l-153" target="WIyWlLk6GJQsqaUBKTNV-3">
          <mxGeometry relative="1" as="geometry">
            <Array as="points">
              <mxPoint x="1090" y="1430" />
              <mxPoint x="1090" y="-250" />
            </Array>
          </mxGeometry>
        </mxCell>
        <mxCell id="nNdOjqee2YxKoc1IFC1l-157" value="Return to main interface" style="edgeLabel;html=1;align=center;verticalAlign=middle;resizable=0;points=[];" connectable="0" vertex="1" parent="nNdOjqee2YxKoc1IFC1l-156">
          <mxGeometry x="-0.9759" y="2" relative="1" as="geometry">
            <mxPoint x="41" y="-28" as="offset" />
          </mxGeometry>
        </mxCell>
        <mxCell id="nNdOjqee2YxKoc1IFC1l-158" style="edgeStyle=orthogonalEdgeStyle;rounded=0;orthogonalLoop=1;jettySize=auto;html=1;entryX=0.5;entryY=1;entryDx=0;entryDy=0;" edge="1" parent="WIyWlLk6GJQsqaUBKTNV-1" source="nNdOjqee2YxKoc1IFC1l-153" target="nNdOjqee2YxKoc1IFC1l-24">
          <mxGeometry relative="1" as="geometry">
            <Array as="points">
              <mxPoint x="980" y="1530" />
              <mxPoint x="1290" y="1530" />
            </Array>
          </mxGeometry>
        </mxCell>
        <mxCell id="nNdOjqee2YxKoc1IFC1l-159" value="Quit" style="edgeLabel;html=1;align=center;verticalAlign=middle;resizable=0;points=[];" connectable="0" vertex="1" parent="nNdOjqee2YxKoc1IFC1l-158">
          <mxGeometry x="-0.9688" relative="1" as="geometry">
            <mxPoint as="offset" />
          </mxGeometry>
        </mxCell>
        <mxCell id="nNdOjqee2YxKoc1IFC1l-153" value="Which Button?" style="rhombus;whiteSpace=wrap;html=1;" vertex="1" parent="WIyWlLk6GJQsqaUBKTNV-1">
          <mxGeometry x="940" y="1390" width="80" height="80" as="geometry" />
        </mxCell>
      </root>
    </mxGraphModel>
  </diagram>
  <diagram id="GDOzR5b_NKHSkGkmxzs9" name="第 2 页">
    <mxGraphModel grid="1" page="1" gridSize="10" guides="1" tooltips="1" connect="1" arrows="1" fold="1" pageScale="1" pageWidth="827" pageHeight="1169" math="0" shadow="0">
      <root>
        <mxCell id="0" />
        <mxCell id="1" parent="0" />
        <mxCell id="uHyVkkRTxNTZ9W6II1QR-113" style="edgeStyle=orthogonalEdgeStyle;rounded=0;orthogonalLoop=1;jettySize=auto;html=1;entryX=0.585;entryY=1.003;entryDx=0;entryDy=0;entryPerimeter=0;fontFamily=Helvetica;fontSize=12;fontColor=default;startArrow=classic;startFill=1;" edge="1" parent="1" source="uHyVkkRTxNTZ9W6II1QR-1" target="uHyVkkRTxNTZ9W6II1QR-53">
          <mxGeometry relative="1" as="geometry">
            <Array as="points">
              <mxPoint x="80" y="1310" />
              <mxPoint x="822" y="1310" />
            </Array>
          </mxGeometry>
        </mxCell>
        <mxCell id="uHyVkkRTxNTZ9W6II1QR-114" style="edgeStyle=orthogonalEdgeStyle;rounded=0;orthogonalLoop=1;jettySize=auto;html=1;entryX=0.478;entryY=0.99;entryDx=0;entryDy=0;entryPerimeter=0;fontFamily=Helvetica;fontSize=12;fontColor=default;startArrow=classic;startFill=1;" edge="1" parent="1" source="uHyVkkRTxNTZ9W6II1QR-1" target="uHyVkkRTxNTZ9W6II1QR-68">
          <mxGeometry relative="1" as="geometry">
            <Array as="points">
              <mxPoint x="80" y="1390" />
              <mxPoint x="1455" y="1390" />
            </Array>
          </mxGeometry>
        </mxCell>
        <mxCell id="uHyVkkRTxNTZ9W6II1QR-115" style="edgeStyle=orthogonalEdgeStyle;rounded=0;orthogonalLoop=1;jettySize=auto;html=1;entryX=0.456;entryY=0.984;entryDx=0;entryDy=0;entryPerimeter=0;fontFamily=Helvetica;fontSize=12;fontColor=default;startArrow=classic;startFill=1;" edge="1" parent="1" source="uHyVkkRTxNTZ9W6II1QR-1" target="uHyVkkRTxNTZ9W6II1QR-87">
          <mxGeometry relative="1" as="geometry">
            <Array as="points">
              <mxPoint x="80" y="1350" />
              <mxPoint x="1133" y="1350" />
            </Array>
          </mxGeometry>
        </mxCell>
        <mxCell id="uHyVkkRTxNTZ9W6II1QR-117" style="edgeStyle=orthogonalEdgeStyle;rounded=0;orthogonalLoop=1;jettySize=auto;html=1;entryX=0.412;entryY=1.01;entryDx=0;entryDy=0;entryPerimeter=0;fontFamily=Helvetica;fontSize=12;fontColor=default;dashed=1;" edge="1" parent="1" source="uHyVkkRTxNTZ9W6II1QR-1" target="uHyVkkRTxNTZ9W6II1QR-100">
          <mxGeometry relative="1" as="geometry">
            <Array as="points">
              <mxPoint x="140" y="1280" />
              <mxPoint x="445" y="1280" />
            </Array>
          </mxGeometry>
        </mxCell>
        <mxCell id="uHyVkkRTxNTZ9W6II1QR-1" value="House" style="swimlane;fontStyle=1;align=center;verticalAlign=top;childLayout=stackLayout;horizontal=1;startSize=26;horizontalStack=0;resizeParent=1;resizeParentMax=0;resizeLast=0;collapsible=1;marginBottom=0;whiteSpace=wrap;" vertex="1" parent="1">
          <mxGeometry x="-30" y="585" width="290" height="606" as="geometry" />
        </mxCell>
        <mxCell id="uHyVkkRTxNTZ9W6II1QR-2" value="- id : Int" style="text;strokeColor=none;fillColor=none;align=left;verticalAlign=top;spacingLeft=4;spacingRight=4;overflow=hidden;rotatable=0;points=[[0,0.5],[1,0.5]];portConstraint=eastwest;whiteSpace=wrap;" vertex="1" parent="uHyVkkRTxNTZ9W6II1QR-1">
          <mxGeometry y="26" width="290" height="26" as="geometry" />
        </mxCell>
        <mxCell id="uHyVkkRTxNTZ9W6II1QR-5" value="- name : String" style="text;strokeColor=none;fillColor=none;align=left;verticalAlign=top;spacingLeft=4;spacingRight=4;overflow=hidden;rotatable=0;points=[[0,0.5],[1,0.5]];portConstraint=eastwest;whiteSpace=wrap;" vertex="1" parent="uHyVkkRTxNTZ9W6II1QR-1">
          <mxGeometry y="52" width="290" height="26" as="geometry" />
        </mxCell>
        <mxCell id="uHyVkkRTxNTZ9W6II1QR-6" value="- host_id : Int" style="text;strokeColor=none;fillColor=none;align=left;verticalAlign=top;spacingLeft=4;spacingRight=4;overflow=hidden;rotatable=0;points=[[0,0.5],[1,0.5]];portConstraint=eastwest;whiteSpace=wrap;" vertex="1" parent="uHyVkkRTxNTZ9W6II1QR-1">
          <mxGeometry y="78" width="290" height="26" as="geometry" />
        </mxCell>
        <mxCell id="uHyVkkRTxNTZ9W6II1QR-7" value="- host_name : String" style="text;strokeColor=none;fillColor=none;align=left;verticalAlign=top;spacingLeft=4;spacingRight=4;overflow=hidden;rotatable=0;points=[[0,0.5],[1,0.5]];portConstraint=eastwest;whiteSpace=wrap;" vertex="1" parent="uHyVkkRTxNTZ9W6II1QR-1">
          <mxGeometry y="104" width="290" height="26" as="geometry" />
        </mxCell>
        <mxCell id="uHyVkkRTxNTZ9W6II1QR-11" value="- price: Int" style="text;strokeColor=none;fillColor=none;align=left;verticalAlign=top;spacingLeft=4;spacingRight=4;overflow=hidden;rotatable=0;points=[[0,0.5],[1,0.5]];portConstraint=eastwest;whiteSpace=wrap;" vertex="1" parent="uHyVkkRTxNTZ9W6II1QR-1">
          <mxGeometry y="130" width="290" height="26" as="geometry" />
        </mxCell>
        <mxCell id="uHyVkkRTxNTZ9W6II1QR-12" value="- minimum_nights: Int" style="text;strokeColor=none;fillColor=none;align=left;verticalAlign=top;spacingLeft=4;spacingRight=4;overflow=hidden;rotatable=0;points=[[0,0.5],[1,0.5]];portConstraint=eastwest;whiteSpace=wrap;" vertex="1" parent="uHyVkkRTxNTZ9W6II1QR-1">
          <mxGeometry y="156" width="290" height="26" as="geometry" />
        </mxCell>
        <mxCell id="uHyVkkRTxNTZ9W6II1QR-13" value="- number_of_reviews: Int" style="text;strokeColor=none;fillColor=none;align=left;verticalAlign=top;spacingLeft=4;spacingRight=4;overflow=hidden;rotatable=0;points=[[0,0.5],[1,0.5]];portConstraint=eastwest;whiteSpace=wrap;" vertex="1" parent="uHyVkkRTxNTZ9W6II1QR-1">
          <mxGeometry y="182" width="290" height="26" as="geometry" />
        </mxCell>
        <mxCell id="uHyVkkRTxNTZ9W6II1QR-14" value="- calculated_host_listings_count: Int" style="text;strokeColor=none;fillColor=none;align=left;verticalAlign=top;spacingLeft=4;spacingRight=4;overflow=hidden;rotatable=0;points=[[0,0.5],[1,0.5]];portConstraint=eastwest;whiteSpace=wrap;" vertex="1" parent="uHyVkkRTxNTZ9W6II1QR-1">
          <mxGeometry y="208" width="290" height="26" as="geometry" />
        </mxCell>
        <mxCell id="uHyVkkRTxNTZ9W6II1QR-15" value="- availability_365: Int" style="text;strokeColor=none;fillColor=none;align=left;verticalAlign=top;spacingLeft=4;spacingRight=4;overflow=hidden;rotatable=0;points=[[0,0.5],[1,0.5]];portConstraint=eastwest;whiteSpace=wrap;" vertex="1" parent="uHyVkkRTxNTZ9W6II1QR-1">
          <mxGeometry y="234" width="290" height="26" as="geometry" />
        </mxCell>
        <mxCell id="uHyVkkRTxNTZ9W6II1QR-98" value="- suburb_id: Int" style="text;strokeColor=none;fillColor=none;align=left;verticalAlign=top;spacingLeft=4;spacingRight=4;overflow=hidden;rotatable=0;points=[[0,0.5],[1,0.5]];portConstraint=eastwest;whiteSpace=wrap;" vertex="1" parent="uHyVkkRTxNTZ9W6II1QR-1">
          <mxGeometry y="260" width="290" height="26" as="geometry" />
        </mxCell>
        <mxCell id="uHyVkkRTxNTZ9W6II1QR-3" value="" style="line;strokeWidth=1;fillColor=none;align=left;verticalAlign=middle;spacingTop=-1;spacingLeft=3;spacingRight=3;rotatable=0;labelPosition=right;points=[];portConstraint=eastwest;strokeColor=inherit;" vertex="1" parent="uHyVkkRTxNTZ9W6II1QR-1">
          <mxGeometry y="286" width="290" height="8" as="geometry" />
        </mxCell>
        <mxCell id="uHyVkkRTxNTZ9W6II1QR-4" value="- __init__() -&gt; void" style="text;strokeColor=none;fillColor=none;align=left;verticalAlign=top;spacingLeft=4;spacingRight=4;overflow=hidden;rotatable=0;points=[[0,0.5],[1,0.5]];portConstraint=eastwest;whiteSpace=wrap;" vertex="1" parent="uHyVkkRTxNTZ9W6II1QR-1">
          <mxGeometry y="294" width="290" height="26" as="geometry" />
        </mxCell>
        <mxCell id="uHyVkkRTxNTZ9W6II1QR-16" value="+ get_house_id() -&amp;gt; Int" style="text;strokeColor=none;fillColor=none;align=left;verticalAlign=top;spacingLeft=4;spacingRight=4;overflow=hidden;rotatable=0;points=[[0,0.5],[1,0.5]];portConstraint=eastwest;whiteSpace=wrap;html=1;" vertex="1" parent="uHyVkkRTxNTZ9W6II1QR-1">
          <mxGeometry y="320" width="290" height="26" as="geometry" />
        </mxCell>
        <mxCell id="uHyVkkRTxNTZ9W6II1QR-17" value="+ get_house_name() -&gt; String &#xa;" style="text;strokeColor=none;fillColor=none;align=left;verticalAlign=top;spacingLeft=4;spacingRight=4;overflow=hidden;rotatable=0;points=[[0,0.5],[1,0.5]];portConstraint=eastwest;whiteSpace=wrap;" vertex="1" parent="uHyVkkRTxNTZ9W6II1QR-1">
          <mxGeometry y="346" width="290" height="26" as="geometry" />
        </mxCell>
        <mxCell id="uHyVkkRTxNTZ9W6II1QR-18" value="+ get_host_id()  -&gt; Int" style="text;strokeColor=none;fillColor=none;align=left;verticalAlign=top;spacingLeft=4;spacingRight=4;overflow=hidden;rotatable=0;points=[[0,0.5],[1,0.5]];portConstraint=eastwest;whiteSpace=wrap;" vertex="1" parent="uHyVkkRTxNTZ9W6II1QR-1">
          <mxGeometry y="372" width="290" height="26" as="geometry" />
        </mxCell>
        <mxCell id="uHyVkkRTxNTZ9W6II1QR-19" value="+ get_host_name()  -&gt;  String" style="text;strokeColor=none;fillColor=none;align=left;verticalAlign=top;spacingLeft=4;spacingRight=4;overflow=hidden;rotatable=0;points=[[0,0.5],[1,0.5]];portConstraint=eastwest;whiteSpace=wrap;" vertex="1" parent="uHyVkkRTxNTZ9W6II1QR-1">
          <mxGeometry y="398" width="290" height="26" as="geometry" />
        </mxCell>
        <mxCell id="uHyVkkRTxNTZ9W6II1QR-20" value="+ get_neighbourhood_group()  -&gt; Int&#xa;" style="text;strokeColor=none;fillColor=none;align=left;verticalAlign=top;spacingLeft=4;spacingRight=4;overflow=hidden;rotatable=0;points=[[0,0.5],[1,0.5]];portConstraint=eastwest;whiteSpace=wrap;" vertex="1" parent="uHyVkkRTxNTZ9W6II1QR-1">
          <mxGeometry y="424" width="290" height="26" as="geometry" />
        </mxCell>
        <mxCell id="uHyVkkRTxNTZ9W6II1QR-21" value="+ get_neighbourhood()  -&gt;  String" style="text;strokeColor=none;fillColor=none;align=left;verticalAlign=top;spacingLeft=4;spacingRight=4;overflow=hidden;rotatable=0;points=[[0,0.5],[1,0.5]];portConstraint=eastwest;whiteSpace=wrap;" vertex="1" parent="uHyVkkRTxNTZ9W6II1QR-1">
          <mxGeometry y="450" width="290" height="26" as="geometry" />
        </mxCell>
        <mxCell id="uHyVkkRTxNTZ9W6II1QR-23" value="+ get_price()  -&gt; Int" style="text;strokeColor=none;fillColor=none;align=left;verticalAlign=top;spacingLeft=4;spacingRight=4;overflow=hidden;rotatable=0;points=[[0,0.5],[1,0.5]];portConstraint=eastwest;whiteSpace=wrap;" vertex="1" parent="uHyVkkRTxNTZ9W6II1QR-1">
          <mxGeometry y="476" width="290" height="26" as="geometry" />
        </mxCell>
        <mxCell id="uHyVkkRTxNTZ9W6II1QR-24" value="+ get_minimum_night()  -&gt; Int" style="text;strokeColor=none;fillColor=none;align=left;verticalAlign=top;spacingLeft=4;spacingRight=4;overflow=hidden;rotatable=0;points=[[0,0.5],[1,0.5]];portConstraint=eastwest;whiteSpace=wrap;" vertex="1" parent="uHyVkkRTxNTZ9W6II1QR-1">
          <mxGeometry y="502" width="290" height="26" as="geometry" />
        </mxCell>
        <mxCell id="uHyVkkRTxNTZ9W6II1QR-25" value="+ get_number_of_reviews()  -&gt;  Int" style="text;strokeColor=none;fillColor=none;align=left;verticalAlign=top;spacingLeft=4;spacingRight=4;overflow=hidden;rotatable=0;points=[[0,0.5],[1,0.5]];portConstraint=eastwest;whiteSpace=wrap;" vertex="1" parent="uHyVkkRTxNTZ9W6II1QR-1">
          <mxGeometry y="528" width="290" height="26" as="geometry" />
        </mxCell>
        <mxCell id="uHyVkkRTxNTZ9W6II1QR-26" value="+ get_calculated_host_listings_count()-&gt;  Int&#xa; " style="text;strokeColor=none;fillColor=none;align=left;verticalAlign=top;spacingLeft=4;spacingRight=4;overflow=hidden;rotatable=0;points=[[0,0.5],[1,0.5]];portConstraint=eastwest;whiteSpace=wrap;" vertex="1" parent="uHyVkkRTxNTZ9W6II1QR-1">
          <mxGeometry y="554" width="290" height="26" as="geometry" />
        </mxCell>
        <mxCell id="uHyVkkRTxNTZ9W6II1QR-27" value="+ get_availability_365()  -&gt;  Int" style="text;strokeColor=none;fillColor=none;align=left;verticalAlign=top;spacingLeft=4;spacingRight=4;overflow=hidden;rotatable=0;points=[[0,0.5],[1,0.5]];portConstraint=eastwest;whiteSpace=wrap;" vertex="1" parent="uHyVkkRTxNTZ9W6II1QR-1">
          <mxGeometry y="580" width="290" height="26" as="geometry" />
        </mxCell>
        <mxCell id="uHyVkkRTxNTZ9W6II1QR-116" style="edgeStyle=orthogonalEdgeStyle;rounded=0;orthogonalLoop=1;jettySize=auto;html=1;entryX=0.529;entryY=0.978;entryDx=0;entryDy=0;entryPerimeter=0;fontFamily=Helvetica;fontSize=12;fontColor=default;dashed=1;" edge="1" parent="1" source="uHyVkkRTxNTZ9W6II1QR-28" target="uHyVkkRTxNTZ9W6II1QR-100">
          <mxGeometry relative="1" as="geometry">
            <Array as="points">
              <mxPoint x="800" y="1280" />
              <mxPoint x="478" y="1280" />
            </Array>
          </mxGeometry>
        </mxCell>
        <mxCell id="uHyVkkRTxNTZ9W6II1QR-28" value="HouseHolder" style="swimlane;fontStyle=1;align=center;verticalAlign=top;childLayout=stackLayout;horizontal=1;startSize=26;horizontalStack=0;resizeParent=1;resizeParentMax=0;resizeLast=0;collapsible=1;marginBottom=0;whiteSpace=wrap;html=1;fontFamily=Helvetica;fontSize=12;fontColor=default;fillColor=none;gradientColor=none;" vertex="1" parent="1">
          <mxGeometry x="670" y="630" width="260" height="580" as="geometry" />
        </mxCell>
        <mxCell id="uHyVkkRTxNTZ9W6II1QR-29" value="-host_id  : Int" style="text;strokeColor=none;fillColor=none;align=left;verticalAlign=top;spacingLeft=4;spacingRight=4;overflow=hidden;rotatable=0;points=[[0,0.5],[1,0.5]];portConstraint=eastwest;whiteSpace=wrap;fontSize=12;fontFamily=Helvetica;fontColor=default;" vertex="1" parent="uHyVkkRTxNTZ9W6II1QR-28">
          <mxGeometry y="26" width="260" height="26" as="geometry" />
        </mxCell>
        <mxCell id="uHyVkkRTxNTZ9W6II1QR-32" value="-host_name  : String" style="text;strokeColor=none;fillColor=none;align=left;verticalAlign=top;spacingLeft=4;spacingRight=4;overflow=hidden;rotatable=0;points=[[0,0.5],[1,0.5]];portConstraint=eastwest;whiteSpace=wrap;fontSize=12;fontFamily=Helvetica;fontColor=default;" vertex="1" parent="uHyVkkRTxNTZ9W6II1QR-28">
          <mxGeometry y="52" width="260" height="26" as="geometry" />
        </mxCell>
        <mxCell id="uHyVkkRTxNTZ9W6II1QR-34" value="-host_location  : String" style="text;strokeColor=none;fillColor=none;align=left;verticalAlign=top;spacingLeft=4;spacingRight=4;overflow=hidden;rotatable=0;points=[[0,0.5],[1,0.5]];portConstraint=eastwest;whiteSpace=wrap;fontSize=12;fontFamily=Helvetica;fontColor=default;" vertex="1" parent="uHyVkkRTxNTZ9W6II1QR-28">
          <mxGeometry y="78" width="260" height="26" as="geometry" />
        </mxCell>
        <mxCell id="uHyVkkRTxNTZ9W6II1QR-36" value="-host_response_time  : Int&#xa;" style="text;strokeColor=none;fillColor=none;align=left;verticalAlign=top;spacingLeft=4;spacingRight=4;overflow=hidden;rotatable=0;points=[[0,0.5],[1,0.5]];portConstraint=eastwest;whiteSpace=wrap;fontSize=12;fontFamily=Helvetica;fontColor=default;" vertex="1" parent="uHyVkkRTxNTZ9W6II1QR-28">
          <mxGeometry y="104" width="260" height="26" as="geometry" />
        </mxCell>
        <mxCell id="uHyVkkRTxNTZ9W6II1QR-37" value="-host_response_rate  : float" style="text;strokeColor=none;fillColor=none;align=left;verticalAlign=top;spacingLeft=4;spacingRight=4;overflow=hidden;rotatable=0;points=[[0,0.5],[1,0.5]];portConstraint=eastwest;whiteSpace=wrap;fontSize=12;fontFamily=Helvetica;fontColor=default;" vertex="1" parent="uHyVkkRTxNTZ9W6II1QR-28">
          <mxGeometry y="130" width="260" height="26" as="geometry" />
        </mxCell>
        <mxCell id="uHyVkkRTxNTZ9W6II1QR-38" value="-host_acceptance_rate  : float" style="text;strokeColor=none;fillColor=none;align=left;verticalAlign=top;spacingLeft=4;spacingRight=4;overflow=hidden;rotatable=0;points=[[0,0.5],[1,0.5]];portConstraint=eastwest;whiteSpace=wrap;fontSize=12;fontFamily=Helvetica;fontColor=default;" vertex="1" parent="uHyVkkRTxNTZ9W6II1QR-28">
          <mxGeometry y="156" width="260" height="26" as="geometry" />
        </mxCell>
        <mxCell id="uHyVkkRTxNTZ9W6II1QR-39" value="-host_is_super_host  : Bool" style="text;strokeColor=none;fillColor=none;align=left;verticalAlign=top;spacingLeft=4;spacingRight=4;overflow=hidden;rotatable=0;points=[[0,0.5],[1,0.5]];portConstraint=eastwest;whiteSpace=wrap;fontSize=12;fontFamily=Helvetica;fontColor=default;" vertex="1" parent="uHyVkkRTxNTZ9W6II1QR-28">
          <mxGeometry y="182" width="260" height="26" as="geometry" />
        </mxCell>
        <mxCell id="uHyVkkRTxNTZ9W6II1QR-40" value="-suburb_id : Int  " style="text;strokeColor=none;fillColor=none;align=left;verticalAlign=top;spacingLeft=4;spacingRight=4;overflow=hidden;rotatable=0;points=[[0,0.5],[1,0.5]];portConstraint=eastwest;whiteSpace=wrap;fontSize=12;fontFamily=Helvetica;fontColor=default;" vertex="1" parent="uHyVkkRTxNTZ9W6II1QR-28">
          <mxGeometry y="208" width="260" height="26" as="geometry" />
        </mxCell>
        <mxCell id="uHyVkkRTxNTZ9W6II1QR-41" value="-host_total_listings_count  : Int" style="text;strokeColor=none;fillColor=none;align=left;verticalAlign=top;spacingLeft=4;spacingRight=4;overflow=hidden;rotatable=0;points=[[0,0.5],[1,0.5]];portConstraint=eastwest;whiteSpace=wrap;fontSize=12;fontFamily=Helvetica;fontColor=default;" vertex="1" parent="uHyVkkRTxNTZ9W6II1QR-28">
          <mxGeometry y="234" width="260" height="26" as="geometry" />
        </mxCell>
        <mxCell id="uHyVkkRTxNTZ9W6II1QR-42" value="-host_identity_verified  : Bool" style="text;strokeColor=none;fillColor=none;align=left;verticalAlign=top;spacingLeft=4;spacingRight=4;overflow=hidden;rotatable=0;points=[[0,0.5],[1,0.5]];portConstraint=eastwest;whiteSpace=wrap;fontSize=12;fontFamily=Helvetica;fontColor=default;" vertex="1" parent="uHyVkkRTxNTZ9W6II1QR-28">
          <mxGeometry y="260" width="260" height="26" as="geometry" />
        </mxCell>
        <mxCell id="uHyVkkRTxNTZ9W6II1QR-30" value="" style="line;strokeWidth=1;fillColor=none;align=left;verticalAlign=middle;spacingTop=-1;spacingLeft=3;spacingRight=3;rotatable=0;labelPosition=right;points=[];portConstraint=eastwest;strokeColor=inherit;fontFamily=Helvetica;fontSize=12;fontColor=default;html=1;" vertex="1" parent="uHyVkkRTxNTZ9W6II1QR-28">
          <mxGeometry y="286" width="260" height="8" as="geometry" />
        </mxCell>
        <mxCell id="uHyVkkRTxNTZ9W6II1QR-31" value="- __init__()  " style="text;strokeColor=none;fillColor=none;align=left;verticalAlign=top;spacingLeft=4;spacingRight=4;overflow=hidden;rotatable=0;points=[[0,0.5],[1,0.5]];portConstraint=eastwest;whiteSpace=wrap;fontSize=12;fontFamily=Helvetica;fontColor=default;" vertex="1" parent="uHyVkkRTxNTZ9W6II1QR-28">
          <mxGeometry y="294" width="260" height="26" as="geometry" />
        </mxCell>
        <mxCell id="uHyVkkRTxNTZ9W6II1QR-43" value="+ get_host_id()  -&gt; Int" style="text;strokeColor=none;fillColor=none;align=left;verticalAlign=top;spacingLeft=4;spacingRight=4;overflow=hidden;rotatable=0;points=[[0,0.5],[1,0.5]];portConstraint=eastwest;whiteSpace=wrap;fontSize=12;fontFamily=Helvetica;fontColor=default;" vertex="1" parent="uHyVkkRTxNTZ9W6II1QR-28">
          <mxGeometry y="320" width="260" height="26" as="geometry" />
        </mxCell>
        <mxCell id="uHyVkkRTxNTZ9W6II1QR-44" value="+ get_host_name()  -&gt; String" style="text;strokeColor=none;fillColor=none;align=left;verticalAlign=top;spacingLeft=4;spacingRight=4;overflow=hidden;rotatable=0;points=[[0,0.5],[1,0.5]];portConstraint=eastwest;whiteSpace=wrap;fontSize=12;fontFamily=Helvetica;fontColor=default;" vertex="1" parent="uHyVkkRTxNTZ9W6II1QR-28">
          <mxGeometry y="346" width="260" height="26" as="geometry" />
        </mxCell>
        <mxCell id="uHyVkkRTxNTZ9W6II1QR-45" value="+ get_host_location()  -&gt; String" style="text;strokeColor=none;fillColor=none;align=left;verticalAlign=top;spacingLeft=4;spacingRight=4;overflow=hidden;rotatable=0;points=[[0,0.5],[1,0.5]];portConstraint=eastwest;whiteSpace=wrap;fontSize=12;fontFamily=Helvetica;fontColor=default;" vertex="1" parent="uHyVkkRTxNTZ9W6II1QR-28">
          <mxGeometry y="372" width="260" height="26" as="geometry" />
        </mxCell>
        <mxCell id="uHyVkkRTxNTZ9W6II1QR-46" value="+ get_host_response_time()  -&gt; Int" style="text;strokeColor=none;fillColor=none;align=left;verticalAlign=top;spacingLeft=4;spacingRight=4;overflow=hidden;rotatable=0;points=[[0,0.5],[1,0.5]];portConstraint=eastwest;whiteSpace=wrap;fontSize=12;fontFamily=Helvetica;fontColor=default;" vertex="1" parent="uHyVkkRTxNTZ9W6II1QR-28">
          <mxGeometry y="398" width="260" height="26" as="geometry" />
        </mxCell>
        <mxCell id="uHyVkkRTxNTZ9W6II1QR-47" value="+ get_host_response_rate()  -&gt; float" style="text;strokeColor=none;fillColor=none;align=left;verticalAlign=top;spacingLeft=4;spacingRight=4;overflow=hidden;rotatable=0;points=[[0,0.5],[1,0.5]];portConstraint=eastwest;whiteSpace=wrap;fontSize=12;fontFamily=Helvetica;fontColor=default;" vertex="1" parent="uHyVkkRTxNTZ9W6II1QR-28">
          <mxGeometry y="424" width="260" height="26" as="geometry" />
        </mxCell>
        <mxCell id="uHyVkkRTxNTZ9W6II1QR-48" value="+ get_host_acceptance_rate()  -&gt; float" style="text;strokeColor=none;fillColor=none;align=left;verticalAlign=top;spacingLeft=4;spacingRight=4;overflow=hidden;rotatable=0;points=[[0,0.5],[1,0.5]];portConstraint=eastwest;whiteSpace=wrap;fontSize=12;fontFamily=Helvetica;fontColor=default;" vertex="1" parent="uHyVkkRTxNTZ9W6II1QR-28">
          <mxGeometry y="450" width="260" height="26" as="geometry" />
        </mxCell>
        <mxCell id="uHyVkkRTxNTZ9W6II1QR-50" value="+ get_host_is_super_host()  -&gt; Bool" style="text;strokeColor=none;fillColor=none;align=left;verticalAlign=top;spacingLeft=4;spacingRight=4;overflow=hidden;rotatable=0;points=[[0,0.5],[1,0.5]];portConstraint=eastwest;whiteSpace=wrap;fontSize=12;fontFamily=Helvetica;fontColor=default;" vertex="1" parent="uHyVkkRTxNTZ9W6II1QR-28">
          <mxGeometry y="476" width="260" height="26" as="geometry" />
        </mxCell>
        <mxCell id="uHyVkkRTxNTZ9W6II1QR-51" value="+ get_host_listing_count() -&gt; Int" style="text;strokeColor=none;fillColor=none;align=left;verticalAlign=top;spacingLeft=4;spacingRight=4;overflow=hidden;rotatable=0;points=[[0,0.5],[1,0.5]];portConstraint=eastwest;whiteSpace=wrap;fontSize=12;fontFamily=Helvetica;fontColor=default;" vertex="1" parent="uHyVkkRTxNTZ9W6II1QR-28">
          <mxGeometry y="502" width="260" height="26" as="geometry" />
        </mxCell>
        <mxCell id="uHyVkkRTxNTZ9W6II1QR-52" value="+ get_host_total_listings_count()  -&gt; Int" style="text;strokeColor=none;fillColor=none;align=left;verticalAlign=top;spacingLeft=4;spacingRight=4;overflow=hidden;rotatable=0;points=[[0,0.5],[1,0.5]];portConstraint=eastwest;whiteSpace=wrap;fontSize=12;fontFamily=Helvetica;fontColor=default;" vertex="1" parent="uHyVkkRTxNTZ9W6II1QR-28">
          <mxGeometry y="528" width="260" height="26" as="geometry" />
        </mxCell>
        <mxCell id="uHyVkkRTxNTZ9W6II1QR-53" value="+ get_host_identity_verified()  -&gt; Bool" style="text;strokeColor=none;fillColor=none;align=left;verticalAlign=top;spacingLeft=4;spacingRight=4;overflow=hidden;rotatable=0;points=[[0,0.5],[1,0.5]];portConstraint=eastwest;whiteSpace=wrap;fontSize=12;fontFamily=Helvetica;fontColor=default;" vertex="1" parent="uHyVkkRTxNTZ9W6II1QR-28">
          <mxGeometry y="554" width="260" height="26" as="geometry" />
        </mxCell>
        <mxCell id="uHyVkkRTxNTZ9W6II1QR-54" value="Review" style="swimlane;fontStyle=1;align=center;verticalAlign=top;childLayout=stackLayout;horizontal=1;startSize=26;horizontalStack=0;resizeParent=1;resizeParentMax=0;resizeLast=0;collapsible=1;marginBottom=0;whiteSpace=wrap;html=1;fontFamily=Helvetica;fontSize=12;fontColor=default;fillColor=none;gradientColor=none;" vertex="1" parent="1">
          <mxGeometry x="1340" y="630" width="240" height="372" as="geometry" />
        </mxCell>
        <mxCell id="uHyVkkRTxNTZ9W6II1QR-55" value="- listing_id : Int" style="text;strokeColor=none;fillColor=none;align=left;verticalAlign=top;spacingLeft=4;spacingRight=4;overflow=hidden;rotatable=0;points=[[0,0.5],[1,0.5]];portConstraint=eastwest;whiteSpace=wrap;fontSize=12;fontFamily=Helvetica;fontColor=default;" vertex="1" parent="uHyVkkRTxNTZ9W6II1QR-54">
          <mxGeometry y="26" width="240" height="26" as="geometry" />
        </mxCell>
        <mxCell id="uHyVkkRTxNTZ9W6II1QR-58" value="- id : Int" style="text;strokeColor=none;fillColor=none;align=left;verticalAlign=top;spacingLeft=4;spacingRight=4;overflow=hidden;rotatable=0;points=[[0,0.5],[1,0.5]];portConstraint=eastwest;whiteSpace=wrap;fontSize=12;fontFamily=Helvetica;fontColor=default;" vertex="1" parent="uHyVkkRTxNTZ9W6II1QR-54">
          <mxGeometry y="52" width="240" height="26" as="geometry" />
        </mxCell>
        <mxCell id="uHyVkkRTxNTZ9W6II1QR-59" value="- date : Date" style="text;strokeColor=none;fillColor=none;align=left;verticalAlign=top;spacingLeft=4;spacingRight=4;overflow=hidden;rotatable=0;points=[[0,0.5],[1,0.5]];portConstraint=eastwest;whiteSpace=wrap;fontSize=12;fontFamily=Helvetica;fontColor=default;" vertex="1" parent="uHyVkkRTxNTZ9W6II1QR-54">
          <mxGeometry y="78" width="240" height="26" as="geometry" />
        </mxCell>
        <mxCell id="uHyVkkRTxNTZ9W6II1QR-60" value="- reviewer_id : Int" style="text;strokeColor=none;fillColor=none;align=left;verticalAlign=top;spacingLeft=4;spacingRight=4;overflow=hidden;rotatable=0;points=[[0,0.5],[1,0.5]];portConstraint=eastwest;whiteSpace=wrap;fontSize=12;fontFamily=Helvetica;fontColor=default;" vertex="1" parent="uHyVkkRTxNTZ9W6II1QR-54">
          <mxGeometry y="104" width="240" height="26" as="geometry" />
        </mxCell>
        <mxCell id="uHyVkkRTxNTZ9W6II1QR-61" value="- reviewer_name : String" style="text;strokeColor=none;fillColor=none;align=left;verticalAlign=top;spacingLeft=4;spacingRight=4;overflow=hidden;rotatable=0;points=[[0,0.5],[1,0.5]];portConstraint=eastwest;whiteSpace=wrap;fontSize=12;fontFamily=Helvetica;fontColor=default;" vertex="1" parent="uHyVkkRTxNTZ9W6II1QR-54">
          <mxGeometry y="130" width="240" height="26" as="geometry" />
        </mxCell>
        <mxCell id="uHyVkkRTxNTZ9W6II1QR-62" value="- comments : String" style="text;strokeColor=none;fillColor=none;align=left;verticalAlign=top;spacingLeft=4;spacingRight=4;overflow=hidden;rotatable=0;points=[[0,0.5],[1,0.5]];portConstraint=eastwest;whiteSpace=wrap;fontSize=12;fontFamily=Helvetica;fontColor=default;" vertex="1" parent="uHyVkkRTxNTZ9W6II1QR-54">
          <mxGeometry y="156" width="240" height="26" as="geometry" />
        </mxCell>
        <mxCell id="uHyVkkRTxNTZ9W6II1QR-56" value="" style="line;strokeWidth=1;fillColor=none;align=left;verticalAlign=middle;spacingTop=-1;spacingLeft=3;spacingRight=3;rotatable=0;labelPosition=right;points=[];portConstraint=eastwest;strokeColor=inherit;fontFamily=Helvetica;fontSize=12;fontColor=default;html=1;" vertex="1" parent="uHyVkkRTxNTZ9W6II1QR-54">
          <mxGeometry y="182" width="240" height="8" as="geometry" />
        </mxCell>
        <mxCell id="uHyVkkRTxNTZ9W6II1QR-57" value="- __init__()  " style="text;strokeColor=none;fillColor=none;align=left;verticalAlign=top;spacingLeft=4;spacingRight=4;overflow=hidden;rotatable=0;points=[[0,0.5],[1,0.5]];portConstraint=eastwest;whiteSpace=wrap;fontSize=12;fontFamily=Helvetica;fontColor=default;" vertex="1" parent="uHyVkkRTxNTZ9W6II1QR-54">
          <mxGeometry y="190" width="240" height="26" as="geometry" />
        </mxCell>
        <mxCell id="uHyVkkRTxNTZ9W6II1QR-63" value="+ get_listing_id() -&gt; Int  " style="text;strokeColor=none;fillColor=none;align=left;verticalAlign=top;spacingLeft=4;spacingRight=4;overflow=hidden;rotatable=0;points=[[0,0.5],[1,0.5]];portConstraint=eastwest;whiteSpace=wrap;fontSize=12;fontFamily=Helvetica;fontColor=default;" vertex="1" parent="uHyVkkRTxNTZ9W6II1QR-54">
          <mxGeometry y="216" width="240" height="26" as="geometry" />
        </mxCell>
        <mxCell id="uHyVkkRTxNTZ9W6II1QR-64" value="+ get_id()  -&gt; Int  " style="text;strokeColor=none;fillColor=none;align=left;verticalAlign=top;spacingLeft=4;spacingRight=4;overflow=hidden;rotatable=0;points=[[0,0.5],[1,0.5]];portConstraint=eastwest;whiteSpace=wrap;fontSize=12;fontFamily=Helvetica;fontColor=default;" vertex="1" parent="uHyVkkRTxNTZ9W6II1QR-54">
          <mxGeometry y="242" width="240" height="26" as="geometry" />
        </mxCell>
        <mxCell id="uHyVkkRTxNTZ9W6II1QR-65" value="+ get_date() -&gt; Date" style="text;strokeColor=none;fillColor=none;align=left;verticalAlign=top;spacingLeft=4;spacingRight=4;overflow=hidden;rotatable=0;points=[[0,0.5],[1,0.5]];portConstraint=eastwest;whiteSpace=wrap;fontSize=12;fontFamily=Helvetica;fontColor=default;" vertex="1" parent="uHyVkkRTxNTZ9W6II1QR-54">
          <mxGeometry y="268" width="240" height="26" as="geometry" />
        </mxCell>
        <mxCell id="uHyVkkRTxNTZ9W6II1QR-66" value="+ get_reviewer_id()-&gt;Int" style="text;strokeColor=none;fillColor=none;align=left;verticalAlign=top;spacingLeft=4;spacingRight=4;overflow=hidden;rotatable=0;points=[[0,0.5],[1,0.5]];portConstraint=eastwest;whiteSpace=wrap;fontSize=12;fontFamily=Helvetica;fontColor=default;" vertex="1" parent="uHyVkkRTxNTZ9W6II1QR-54">
          <mxGeometry y="294" width="240" height="26" as="geometry" />
        </mxCell>
        <mxCell id="uHyVkkRTxNTZ9W6II1QR-67" value="+ get_reviewer_name() -&gt;String" style="text;strokeColor=none;fillColor=none;align=left;verticalAlign=top;spacingLeft=4;spacingRight=4;overflow=hidden;rotatable=0;points=[[0,0.5],[1,0.5]];portConstraint=eastwest;whiteSpace=wrap;fontSize=12;fontFamily=Helvetica;fontColor=default;" vertex="1" parent="uHyVkkRTxNTZ9W6II1QR-54">
          <mxGeometry y="320" width="240" height="26" as="geometry" />
        </mxCell>
        <mxCell id="uHyVkkRTxNTZ9W6II1QR-68" value="+ get_comments()  -&gt;String" style="text;strokeColor=none;fillColor=none;align=left;verticalAlign=top;spacingLeft=4;spacingRight=4;overflow=hidden;rotatable=0;points=[[0,0.5],[1,0.5]];portConstraint=eastwest;whiteSpace=wrap;fontSize=12;fontFamily=Helvetica;fontColor=default;" vertex="1" parent="uHyVkkRTxNTZ9W6II1QR-54">
          <mxGeometry y="346" width="240" height="26" as="geometry" />
        </mxCell>
        <mxCell id="uHyVkkRTxNTZ9W6II1QR-69" value="Neighbourhood" style="swimlane;fontStyle=1;align=center;verticalAlign=top;childLayout=stackLayout;horizontal=1;startSize=26;horizontalStack=0;resizeParent=1;resizeParentMax=0;resizeLast=0;collapsible=1;marginBottom=0;whiteSpace=wrap;fontFamily=Helvetica;fontSize=12;fontColor=default;fillColor=none;gradientColor=none;" vertex="1" parent="1">
          <mxGeometry x="330" y="790" width="280" height="164" as="geometry" />
        </mxCell>
        <mxCell id="uHyVkkRTxNTZ9W6II1QR-70" value="- neighbourhood_group: String" style="text;strokeColor=none;fillColor=none;align=left;verticalAlign=top;spacingLeft=4;spacingRight=4;overflow=hidden;rotatable=0;points=[[0,0.5],[1,0.5]];portConstraint=eastwest;whiteSpace=wrap;fontSize=12;fontFamily=Helvetica;fontColor=default;" vertex="1" parent="uHyVkkRTxNTZ9W6II1QR-69">
          <mxGeometry y="26" width="280" height="26" as="geometry" />
        </mxCell>
        <mxCell id="uHyVkkRTxNTZ9W6II1QR-73" value="- neighbourhood: String" style="text;strokeColor=none;fillColor=none;align=left;verticalAlign=top;spacingLeft=4;spacingRight=4;overflow=hidden;rotatable=0;points=[[0,0.5],[1,0.5]];portConstraint=eastwest;whiteSpace=wrap;fontSize=12;fontFamily=Helvetica;fontColor=default;" vertex="1" parent="uHyVkkRTxNTZ9W6II1QR-69">
          <mxGeometry y="52" width="280" height="26" as="geometry" />
        </mxCell>
        <mxCell id="uHyVkkRTxNTZ9W6II1QR-99" value="- suburb_id: Int" style="text;strokeColor=none;fillColor=none;align=left;verticalAlign=top;spacingLeft=4;spacingRight=4;overflow=hidden;rotatable=0;points=[[0,0.5],[1,0.5]];portConstraint=eastwest;whiteSpace=wrap;fontSize=12;fontFamily=Helvetica;fontColor=default;" vertex="1" parent="uHyVkkRTxNTZ9W6II1QR-69">
          <mxGeometry y="78" width="280" height="26" as="geometry" />
        </mxCell>
        <mxCell id="uHyVkkRTxNTZ9W6II1QR-71" value="" style="line;strokeWidth=1;fillColor=none;align=left;verticalAlign=middle;spacingTop=-1;spacingLeft=3;spacingRight=3;rotatable=0;labelPosition=right;points=[];portConstraint=eastwest;strokeColor=inherit;fontFamily=Helvetica;fontSize=12;fontColor=default;html=1;" vertex="1" parent="uHyVkkRTxNTZ9W6II1QR-69">
          <mxGeometry y="104" width="280" height="8" as="geometry" />
        </mxCell>
        <mxCell id="uHyVkkRTxNTZ9W6II1QR-72" value="- __init__()" style="text;strokeColor=none;fillColor=none;align=left;verticalAlign=top;spacingLeft=4;spacingRight=4;overflow=hidden;rotatable=0;points=[[0,0.5],[1,0.5]];portConstraint=eastwest;whiteSpace=wrap;html=1;fontSize=12;fontFamily=Helvetica;fontColor=default;" vertex="1" parent="uHyVkkRTxNTZ9W6II1QR-69">
          <mxGeometry y="112" width="280" height="26" as="geometry" />
        </mxCell>
        <mxCell id="uHyVkkRTxNTZ9W6II1QR-100" value="- get_neighbourhood_by_id(int)-&amp;gt;String" style="text;strokeColor=none;fillColor=none;align=left;verticalAlign=top;spacingLeft=4;spacingRight=4;overflow=hidden;rotatable=0;points=[[0,0.5],[1,0.5]];portConstraint=eastwest;whiteSpace=wrap;html=1;fontSize=12;fontFamily=Helvetica;fontColor=default;" vertex="1" parent="uHyVkkRTxNTZ9W6II1QR-69">
          <mxGeometry y="138" width="280" height="26" as="geometry" />
        </mxCell>
        <mxCell id="uHyVkkRTxNTZ9W6II1QR-77" value="Calendar" style="swimlane;fontStyle=1;align=center;verticalAlign=top;childLayout=stackLayout;horizontal=1;startSize=26;horizontalStack=0;resizeParent=1;resizeParentMax=0;resizeLast=0;collapsible=1;marginBottom=0;whiteSpace=wrap;html=1;fontFamily=Helvetica;fontSize=12;fontColor=default;fillColor=none;gradientColor=none;" vertex="1" parent="1">
          <mxGeometry x="1060" y="630" width="160" height="268" as="geometry" />
        </mxCell>
        <mxCell id="uHyVkkRTxNTZ9W6II1QR-78" value="- listing_id:Int " style="text;strokeColor=none;fillColor=none;align=left;verticalAlign=top;spacingLeft=4;spacingRight=4;overflow=hidden;rotatable=0;points=[[0,0.5],[1,0.5]];portConstraint=eastwest;whiteSpace=wrap;fontSize=12;fontFamily=Helvetica;fontColor=default;" vertex="1" parent="uHyVkkRTxNTZ9W6II1QR-77">
          <mxGeometry y="26" width="160" height="26" as="geometry" />
        </mxCell>
        <mxCell id="uHyVkkRTxNTZ9W6II1QR-81" value="- date: Date" style="text;strokeColor=none;fillColor=none;align=left;verticalAlign=top;spacingLeft=4;spacingRight=4;overflow=hidden;rotatable=0;points=[[0,0.5],[1,0.5]];portConstraint=eastwest;whiteSpace=wrap;fontSize=12;fontFamily=Helvetica;fontColor=default;" vertex="1" parent="uHyVkkRTxNTZ9W6II1QR-77">
          <mxGeometry y="52" width="160" height="26" as="geometry" />
        </mxCell>
        <mxCell id="uHyVkkRTxNTZ9W6II1QR-82" value="- available : Bool" style="text;strokeColor=none;fillColor=none;align=left;verticalAlign=top;spacingLeft=4;spacingRight=4;overflow=hidden;rotatable=0;points=[[0,0.5],[1,0.5]];portConstraint=eastwest;whiteSpace=wrap;fontSize=12;fontFamily=Helvetica;fontColor=default;" vertex="1" parent="uHyVkkRTxNTZ9W6II1QR-77">
          <mxGeometry y="78" width="160" height="26" as="geometry" />
        </mxCell>
        <mxCell id="uHyVkkRTxNTZ9W6II1QR-83" value="- price: Int" style="text;strokeColor=none;fillColor=none;align=left;verticalAlign=top;spacingLeft=4;spacingRight=4;overflow=hidden;rotatable=0;points=[[0,0.5],[1,0.5]];portConstraint=eastwest;whiteSpace=wrap;fontSize=12;fontFamily=Helvetica;fontColor=default;" vertex="1" parent="uHyVkkRTxNTZ9W6II1QR-77">
          <mxGeometry y="104" width="160" height="26" as="geometry" />
        </mxCell>
        <mxCell id="uHyVkkRTxNTZ9W6II1QR-79" value="" style="line;strokeWidth=1;fillColor=none;align=left;verticalAlign=middle;spacingTop=-1;spacingLeft=3;spacingRight=3;rotatable=0;labelPosition=right;points=[];portConstraint=eastwest;strokeColor=inherit;fontFamily=Helvetica;fontSize=12;fontColor=default;html=1;" vertex="1" parent="uHyVkkRTxNTZ9W6II1QR-77">
          <mxGeometry y="130" width="160" height="8" as="geometry" />
        </mxCell>
        <mxCell id="uHyVkkRTxNTZ9W6II1QR-80" value="- __init__(): Void" style="text;strokeColor=none;fillColor=none;align=left;verticalAlign=top;spacingLeft=4;spacingRight=4;overflow=hidden;rotatable=0;points=[[0,0.5],[1,0.5]];portConstraint=eastwest;whiteSpace=wrap;html=1;fontSize=12;fontFamily=Helvetica;fontColor=default;" vertex="1" parent="uHyVkkRTxNTZ9W6II1QR-77">
          <mxGeometry y="138" width="160" height="26" as="geometry" />
        </mxCell>
        <mxCell id="uHyVkkRTxNTZ9W6II1QR-84" value="+ get_listing_id() -&amp;gt;Int" style="text;strokeColor=none;fillColor=none;align=left;verticalAlign=top;spacingLeft=4;spacingRight=4;overflow=hidden;rotatable=0;points=[[0,0.5],[1,0.5]];portConstraint=eastwest;whiteSpace=wrap;html=1;fontSize=12;fontFamily=Helvetica;fontColor=default;" vertex="1" parent="uHyVkkRTxNTZ9W6II1QR-77">
          <mxGeometry y="164" width="160" height="26" as="geometry" />
        </mxCell>
        <mxCell id="uHyVkkRTxNTZ9W6II1QR-85" value="+ get_date() -&amp;gt; Date" style="text;strokeColor=none;fillColor=none;align=left;verticalAlign=top;spacingLeft=4;spacingRight=4;overflow=hidden;rotatable=0;points=[[0,0.5],[1,0.5]];portConstraint=eastwest;whiteSpace=wrap;html=1;fontSize=12;fontFamily=Helvetica;fontColor=default;" vertex="1" parent="uHyVkkRTxNTZ9W6II1QR-77">
          <mxGeometry y="190" width="160" height="26" as="geometry" />
        </mxCell>
        <mxCell id="uHyVkkRTxNTZ9W6II1QR-86" value="+ get_available() -&amp;gt; Bool" style="text;strokeColor=none;fillColor=none;align=left;verticalAlign=top;spacingLeft=4;spacingRight=4;overflow=hidden;rotatable=0;points=[[0,0.5],[1,0.5]];portConstraint=eastwest;whiteSpace=wrap;html=1;fontSize=12;fontFamily=Helvetica;fontColor=default;" vertex="1" parent="uHyVkkRTxNTZ9W6II1QR-77">
          <mxGeometry y="216" width="160" height="26" as="geometry" />
        </mxCell>
        <mxCell id="uHyVkkRTxNTZ9W6II1QR-87" value="+ get_price() -&amp;gt; Int" style="text;strokeColor=none;fillColor=none;align=left;verticalAlign=top;spacingLeft=4;spacingRight=4;overflow=hidden;rotatable=0;points=[[0,0.5],[1,0.5]];portConstraint=eastwest;whiteSpace=wrap;html=1;fontSize=12;fontFamily=Helvetica;fontColor=default;" vertex="1" parent="uHyVkkRTxNTZ9W6II1QR-77">
          <mxGeometry y="242" width="160" height="26" as="geometry" />
        </mxCell>
        <mxCell id="uHyVkkRTxNTZ9W6II1QR-106" style="edgeStyle=orthogonalEdgeStyle;rounded=0;orthogonalLoop=1;jettySize=auto;html=1;fontFamily=Helvetica;fontSize=12;fontColor=default;" edge="1" parent="1" source="uHyVkkRTxNTZ9W6II1QR-88" target="uHyVkkRTxNTZ9W6II1QR-1">
          <mxGeometry relative="1" as="geometry">
            <Array as="points">
              <mxPoint x="800" y="370" />
              <mxPoint x="115" y="370" />
            </Array>
          </mxGeometry>
        </mxCell>
        <mxCell id="uHyVkkRTxNTZ9W6II1QR-107" style="edgeStyle=orthogonalEdgeStyle;rounded=0;orthogonalLoop=1;jettySize=auto;html=1;entryX=0.5;entryY=0;entryDx=0;entryDy=0;fontFamily=Helvetica;fontSize=12;fontColor=default;" edge="1" parent="1" source="uHyVkkRTxNTZ9W6II1QR-88" target="uHyVkkRTxNTZ9W6II1QR-69">
          <mxGeometry relative="1" as="geometry">
            <Array as="points">
              <mxPoint x="800" y="370" />
              <mxPoint x="470" y="370" />
            </Array>
          </mxGeometry>
        </mxCell>
        <mxCell id="uHyVkkRTxNTZ9W6II1QR-108" style="edgeStyle=orthogonalEdgeStyle;rounded=0;orthogonalLoop=1;jettySize=auto;html=1;fontFamily=Helvetica;fontSize=12;fontColor=default;" edge="1" parent="1" source="uHyVkkRTxNTZ9W6II1QR-88" target="uHyVkkRTxNTZ9W6II1QR-28">
          <mxGeometry relative="1" as="geometry">
            <Array as="points">
              <mxPoint x="800" y="300" />
              <mxPoint x="800" y="300" />
            </Array>
          </mxGeometry>
        </mxCell>
        <mxCell id="uHyVkkRTxNTZ9W6II1QR-109" style="edgeStyle=orthogonalEdgeStyle;rounded=0;orthogonalLoop=1;jettySize=auto;html=1;entryX=0.5;entryY=0;entryDx=0;entryDy=0;fontFamily=Helvetica;fontSize=12;fontColor=default;" edge="1" parent="1" source="uHyVkkRTxNTZ9W6II1QR-88" target="uHyVkkRTxNTZ9W6II1QR-77">
          <mxGeometry relative="1" as="geometry">
            <Array as="points">
              <mxPoint x="800" y="370" />
              <mxPoint x="1140" y="370" />
            </Array>
          </mxGeometry>
        </mxCell>
        <mxCell id="uHyVkkRTxNTZ9W6II1QR-110" style="edgeStyle=orthogonalEdgeStyle;rounded=0;orthogonalLoop=1;jettySize=auto;html=1;entryX=0.5;entryY=0;entryDx=0;entryDy=0;fontFamily=Helvetica;fontSize=12;fontColor=default;" edge="1" parent="1" source="uHyVkkRTxNTZ9W6II1QR-88" target="uHyVkkRTxNTZ9W6II1QR-54">
          <mxGeometry relative="1" as="geometry">
            <Array as="points">
              <mxPoint x="800" y="370" />
              <mxPoint x="1460" y="370" />
            </Array>
          </mxGeometry>
        </mxCell>
        <mxCell id="uHyVkkRTxNTZ9W6II1QR-88" value="AirbnbDataAnalyser" style="swimlane;fontStyle=1;align=center;verticalAlign=top;childLayout=stackLayout;horizontal=1;startSize=26;horizontalStack=0;resizeParent=1;resizeParentMax=0;resizeLast=0;collapsible=1;marginBottom=0;whiteSpace=wrap;html=1;fontFamily=Helvetica;fontSize=12;fontColor=default;fillColor=none;gradientColor=none;" vertex="1" parent="1">
          <mxGeometry x="555" y="-140" width="490" height="346" as="geometry" />
        </mxCell>
        <mxCell id="uHyVkkRTxNTZ9W6II1QR-89" value="- houses: [House]" style="text;strokeColor=none;fillColor=none;align=left;verticalAlign=top;spacingLeft=4;spacingRight=4;overflow=hidden;rotatable=0;points=[[0,0.5],[1,0.5]];portConstraint=eastwest;whiteSpace=wrap;html=1;fontSize=12;fontFamily=Helvetica;fontColor=default;" vertex="1" parent="uHyVkkRTxNTZ9W6II1QR-88">
          <mxGeometry y="26" width="490" height="26" as="geometry" />
        </mxCell>
        <mxCell id="uHyVkkRTxNTZ9W6II1QR-92" value="- hosts: [HouseHolder]" style="text;strokeColor=none;fillColor=none;align=left;verticalAlign=top;spacingLeft=4;spacingRight=4;overflow=hidden;rotatable=0;points=[[0,0.5],[1,0.5]];portConstraint=eastwest;whiteSpace=wrap;html=1;fontSize=12;fontFamily=Helvetica;fontColor=default;" vertex="1" parent="uHyVkkRTxNTZ9W6II1QR-88">
          <mxGeometry y="52" width="490" height="26" as="geometry" />
        </mxCell>
        <mxCell id="uHyVkkRTxNTZ9W6II1QR-93" value="- reviews: [Review]" style="text;strokeColor=none;fillColor=none;align=left;verticalAlign=top;spacingLeft=4;spacingRight=4;overflow=hidden;rotatable=0;points=[[0,0.5],[1,0.5]];portConstraint=eastwest;whiteSpace=wrap;html=1;fontSize=12;fontFamily=Helvetica;fontColor=default;" vertex="1" parent="uHyVkkRTxNTZ9W6II1QR-88">
          <mxGeometry y="78" width="490" height="26" as="geometry" />
        </mxCell>
        <mxCell id="uHyVkkRTxNTZ9W6II1QR-94" value="- neighbourhoods: [Neighbourhood]" style="text;strokeColor=none;fillColor=none;align=left;verticalAlign=top;spacingLeft=4;spacingRight=4;overflow=hidden;rotatable=0;points=[[0,0.5],[1,0.5]];portConstraint=eastwest;whiteSpace=wrap;html=1;fontSize=12;fontFamily=Helvetica;fontColor=default;" vertex="1" parent="uHyVkkRTxNTZ9W6II1QR-88">
          <mxGeometry y="104" width="490" height="26" as="geometry" />
        </mxCell>
        <mxCell id="uHyVkkRTxNTZ9W6II1QR-95" value="- calendars: [Calendar]" style="text;strokeColor=none;fillColor=none;align=left;verticalAlign=top;spacingLeft=4;spacingRight=4;overflow=hidden;rotatable=0;points=[[0,0.5],[1,0.5]];portConstraint=eastwest;whiteSpace=wrap;html=1;fontSize=12;fontFamily=Helvetica;fontColor=default;" vertex="1" parent="uHyVkkRTxNTZ9W6II1QR-88">
          <mxGeometry y="130" width="490" height="26" as="geometry" />
        </mxCell>
        <mxCell id="uHyVkkRTxNTZ9W6II1QR-90" value="" style="line;strokeWidth=1;fillColor=none;align=left;verticalAlign=middle;spacingTop=-1;spacingLeft=3;spacingRight=3;rotatable=0;labelPosition=right;points=[];portConstraint=eastwest;strokeColor=inherit;fontFamily=Helvetica;fontSize=12;fontColor=default;html=1;" vertex="1" parent="uHyVkkRTxNTZ9W6II1QR-88">
          <mxGeometry y="156" width="490" height="8" as="geometry" />
        </mxCell>
        <mxCell id="uHyVkkRTxNTZ9W6II1QR-91" value="- __init__() -&amp;gt; Void" style="text;strokeColor=none;fillColor=none;align=left;verticalAlign=top;spacingLeft=4;spacingRight=4;overflow=hidden;rotatable=0;points=[[0,0.5],[1,0.5]];portConstraint=eastwest;whiteSpace=wrap;html=1;fontSize=12;fontFamily=Helvetica;fontColor=default;" vertex="1" parent="uHyVkkRTxNTZ9W6II1QR-88">
          <mxGeometry y="164" width="490" height="26" as="geometry" />
        </mxCell>
        <mxCell id="uHyVkkRTxNTZ9W6II1QR-96" value="- fetch_data_from_csv() -&gt; Void  " style="text;strokeColor=none;fillColor=none;align=left;verticalAlign=top;spacingLeft=4;spacingRight=4;overflow=hidden;rotatable=0;points=[[0,0.5],[1,0.5]];portConstraint=eastwest;whiteSpace=wrap;fontSize=12;fontFamily=Helvetica;fontColor=default;" vertex="1" parent="uHyVkkRTxNTZ9W6II1QR-88">
          <mxGeometry y="190" width="490" height="26" as="geometry" />
        </mxCell>
        <mxCell id="uHyVkkRTxNTZ9W6II1QR-97" value="- list_houses_info_by_suburb(Int: suburb_id, Date:start_time, Int: duration)-&gt; List   " style="text;strokeColor=none;fillColor=none;align=left;verticalAlign=top;spacingLeft=4;spacingRight=4;overflow=hidden;rotatable=0;points=[[0,0.5],[1,0.5]];portConstraint=eastwest;whiteSpace=wrap;fontSize=12;fontFamily=Helvetica;fontColor=default;" vertex="1" parent="uHyVkkRTxNTZ9W6II1QR-88">
          <mxGeometry y="216" width="490" height="26" as="geometry" />
        </mxCell>
        <mxCell id="uHyVkkRTxNTZ9W6II1QR-101" value="+ generate_figure_by_time(Date:start_time,Int:duration)  -&gt; Void" style="text;strokeColor=none;fillColor=none;align=left;verticalAlign=top;spacingLeft=4;spacingRight=4;overflow=hidden;rotatable=0;points=[[0,0.5],[1,0.5]];portConstraint=eastwest;whiteSpace=wrap;fontSize=12;fontFamily=Helvetica;fontColor=default;" vertex="1" parent="uHyVkkRTxNTZ9W6II1QR-88">
          <mxGeometry y="242" width="490" height="26" as="geometry" />
        </mxCell>
        <mxCell id="uHyVkkRTxNTZ9W6II1QR-102" value="+ search_record_by_input(String:keyword) -&gt; List" style="text;strokeColor=none;fillColor=none;align=left;verticalAlign=top;spacingLeft=4;spacingRight=4;overflow=hidden;rotatable=0;points=[[0,0.5],[1,0.5]];portConstraint=eastwest;whiteSpace=wrap;fontSize=12;fontFamily=Helvetica;fontColor=default;" vertex="1" parent="uHyVkkRTxNTZ9W6II1QR-88">
          <mxGeometry y="268" width="490" height="26" as="geometry" />
        </mxCell>
        <mxCell id="uHyVkkRTxNTZ9W6II1QR-103" value="+ generate_cleaniess_report() -&gt; List" style="text;strokeColor=none;fillColor=none;align=left;verticalAlign=top;spacingLeft=4;spacingRight=4;overflow=hidden;rotatable=0;points=[[0,0.5],[1,0.5]];portConstraint=eastwest;whiteSpace=wrap;fontSize=12;fontFamily=Helvetica;fontColor=default;" vertex="1" parent="uHyVkkRTxNTZ9W6II1QR-88">
          <mxGeometry y="294" width="490" height="26" as="geometry" />
        </mxCell>
        <mxCell id="uHyVkkRTxNTZ9W6II1QR-104" value="+ generate_trends_figure(Int:suburb_id, Date:start_time, Int:duration)  " style="text;strokeColor=none;fillColor=none;align=left;verticalAlign=top;spacingLeft=4;spacingRight=4;overflow=hidden;rotatable=0;points=[[0,0.5],[1,0.5]];portConstraint=eastwest;whiteSpace=wrap;fontSize=12;fontFamily=Helvetica;fontColor=default;" vertex="1" parent="uHyVkkRTxNTZ9W6II1QR-88">
          <mxGeometry y="320" width="490" height="26" as="geometry" />
        </mxCell>
      </root>
    </mxGraphModel>
  </diagram>
</mxfile>
